<svg width="197" height="190" viewBox="0 0 197 190" fill="none" xmlns="http://www.w3.org/2000/svg">
<path d="M149.393 115.357C141.905 115.357 135.822 109.273 135.822 101.786C135.822 94.298 141.905 88.2142 149.393 88.2142C156.881 88.2142 162.964 94.298 162.964 101.786C162.964 109.273 156.881 115.357 149.393 115.357ZM149.393 93.8969C145.047 93.8969 141.504 97.4401 141.504 101.786C141.504 106.131 145.047 109.674 149.393 109.674C153.738 109.674 157.282 106.131 157.282 101.786C157.282 97.4401 153.738 93.8969 149.393 93.8969Z" fill="#2E3033"/>
<path d="M176.536 74.6428H20.4644V169.643H176.536V74.6428ZM29.8533 162.787C34.1897 153.33 39.7992 143.401 46.7614 135.599C53.7235 127.837 61.5211 120.744 72.3025 126.457C87.5396 134.574 94.4222 153.212 108.625 162.787H29.8533ZM169.892 162.866C169.892 162.866 149.682 164.245 134.405 162.669C129.392 162.156 124.698 161.329 121.157 160.029C109.301 155.694 101.742 145.725 94.7405 135.835C100.748 127.915 109.938 123.345 119.924 126.536C126.567 128.664 130.785 136.387 135.24 141.312C144.55 151.518 155.928 155.852 169.852 155.694V162.866H169.892ZM169.892 147.814C162.572 147.656 154.973 146.474 148.687 142.613C138.264 136.269 134.604 122.714 122.072 118.931C109.58 115.149 97.0877 120.035 89.3299 130.082C83.6011 124.33 75.1669 116.961 66.6532 116.292C54.2009 115.306 43.2604 126.615 36.4574 135.638L27.4663 149.39V81.7353L169.892 81.5383V147.814Z" fill="#2E3033"/>
<path d="M196.851 190H0.107178V54.2858H196.893V190H196.851ZM7.16043 182.851H189.84V61.4353H7.16043V182.851Z" fill="#2E3033"/>
<path d="M92.7885 13.1729L60.2129 54.3031L63.7894 57.4826L96.365 16.3524L92.7885 13.1729Z" fill="#2E3033"/>
<path d="M104.6 12.8099L101.023 15.9894L132.951 56.3015L136.527 53.122L104.6 12.8099Z" fill="#2E3033"/>
<path d="M98.5001 20.3571C104.122 20.3571 108.679 15.8 108.679 10.1786C108.679 4.5571 104.122 0 98.5001 0C92.8786 0 88.3215 4.5571 88.3215 10.1786C88.3215 15.8 92.8786 20.3571 98.5001 20.3571Z" fill="#2E3033"/>
</svg>
