<svg width="100" height="32" viewBox="0 0 100 32" fill="none" xmlns="http://www.w3.org/2000/svg">
<rect width="100" height="32" rx="16" fill="#8800FF"/>
<path d="M57.1787 18.6084L58.9512 12.8906H60.4404L57.9307 20H56.9395L57.1787 18.6084ZM55.543 12.8906L57.3057 18.6084L57.5596 20H56.5586L54.0586 12.8906H55.543ZM63.7607 18.877V16.4404C63.7607 16.2614 63.7298 16.1068 63.668 15.9766C63.6061 15.8464 63.5117 15.7454 63.3848 15.6738C63.2578 15.6022 63.0967 15.5664 62.9014 15.5664C62.7288 15.5664 62.5775 15.5957 62.4473 15.6543C62.3203 15.7129 62.2227 15.7959 62.1543 15.9033C62.0859 16.0075 62.0518 16.1279 62.0518 16.2646H60.7578C60.7578 16.0465 60.8099 15.8398 60.9141 15.6445C61.0182 15.446 61.1663 15.2702 61.3584 15.1172C61.5537 14.9609 61.7865 14.8389 62.0566 14.751C62.3301 14.6631 62.6361 14.6191 62.9746 14.6191C63.375 14.6191 63.7314 14.6875 64.0439 14.8242C64.3597 14.9577 64.6071 15.1595 64.7861 15.4297C64.9684 15.6999 65.0596 16.04 65.0596 16.4502V18.7549C65.0596 19.0186 65.0758 19.2448 65.1084 19.4336C65.1442 19.6191 65.1963 19.7803 65.2646 19.917V20H63.9512C63.8893 19.8665 63.8421 19.6973 63.8096 19.4922C63.777 19.2839 63.7607 19.0788 63.7607 18.877ZM63.9414 16.7822L63.9512 17.5488H63.1357C62.9339 17.5488 62.7565 17.57 62.6035 17.6123C62.4505 17.6514 62.3252 17.71 62.2275 17.7881C62.1299 17.863 62.0566 17.9541 62.0078 18.0615C61.959 18.1657 61.9346 18.2845 61.9346 18.418C61.9346 18.5482 61.9639 18.6654 62.0225 18.7695C62.0843 18.8737 62.1722 18.9567 62.2861 19.0186C62.4033 19.0771 62.54 19.1064 62.6963 19.1064C62.9242 19.1064 63.1227 19.0609 63.292 18.9697C63.4613 18.8753 63.5931 18.7614 63.6875 18.6279C63.7819 18.4945 63.8324 18.3675 63.8389 18.2471L64.21 18.8037C64.1644 18.9372 64.096 19.0788 64.0049 19.2285C63.9137 19.3783 63.7965 19.5182 63.6533 19.6484C63.5101 19.7786 63.3376 19.8861 63.1357 19.9707C62.9339 20.0553 62.6995 20.0977 62.4326 20.0977C62.0908 20.0977 61.7848 20.0293 61.5146 19.8926C61.2445 19.7559 61.0312 19.5687 60.875 19.3311C60.7188 19.0934 60.6406 18.8232 60.6406 18.5205C60.6406 18.2406 60.6927 17.9932 60.7969 17.7783C60.901 17.5635 61.0557 17.3828 61.2607 17.2363C61.4658 17.0866 61.7197 16.9743 62.0225 16.8994C62.3285 16.8213 62.6784 16.7822 63.0723 16.7822H63.9414ZM61.1875 13.3203C61.1875 13.1543 61.2477 13.016 61.3682 12.9053C61.4886 12.7913 61.6416 12.7344 61.8271 12.7344C62.016 12.7344 62.1689 12.7913 62.2861 12.9053C62.4066 13.016 62.4668 13.1543 62.4668 13.3203C62.4668 13.4831 62.4066 13.6214 62.2861 13.7354C62.1689 13.846 62.016 13.9014 61.8271 13.9014C61.6416 13.9014 61.4886 13.846 61.3682 13.7354C61.2477 13.6214 61.1875 13.4831 61.1875 13.3203ZM63.5166 13.3252C63.5166 13.1592 63.5752 13.0208 63.6924 12.9102C63.8128 12.7962 63.9674 12.7393 64.1562 12.7393C64.3418 12.7393 64.4948 12.7962 64.6152 12.9102C64.7357 13.0208 64.7959 13.1592 64.7959 13.3252C64.7959 13.488 64.7357 13.6263 64.6152 13.7402C64.4948 13.8509 64.3418 13.9062 64.1562 13.9062C63.9674 13.9062 63.8128 13.8509 63.6924 13.7402C63.5752 13.6263 63.5166 13.488 63.5166 13.3252ZM67.5889 12.5V20H66.2949V12.5H67.5889ZM68.8828 14.7168H70.1816V20.3906C70.1816 20.765 70.1133 21.0824 69.9766 21.3428C69.8431 21.6032 69.6494 21.8001 69.3955 21.9336C69.1416 22.0671 68.8307 22.1338 68.4629 22.1338C68.349 22.1338 68.235 22.1273 68.1211 22.1143C68.0072 22.1012 67.8949 22.0801 67.7842 22.0508L67.7891 21.0547C67.8607 21.0677 67.9339 21.0775 68.0088 21.084C68.0837 21.0938 68.1585 21.0986 68.2334 21.0986C68.3734 21.0986 68.4906 21.0742 68.585 21.0254C68.6826 20.9766 68.7559 20.9001 68.8047 20.7959C68.8568 20.6917 68.8828 20.5566 68.8828 20.3906V14.7168ZM68.7754 13.335C68.7754 13.1429 68.8405 12.9834 68.9707 12.8564C69.1042 12.7295 69.2832 12.666 69.5078 12.666C69.7324 12.666 69.9098 12.7295 70.04 12.8564C70.1735 12.9834 70.2402 13.1429 70.2402 13.335C70.2402 13.5238 70.1735 13.6816 70.04 13.8086C69.9098 13.9355 69.7324 13.999 69.5078 13.999C69.2832 13.999 69.1042 13.9355 68.9707 13.8086C68.8405 13.6816 68.7754 13.5238 68.7754 13.335Z" fill="white"/>
<path d="M20.9932 8.20573H25.1146L23.8944 9.44445C23.6902 9.65172 23.6902 9.98711 23.8944 10.1944C23.9964 10.298 24.1299 10.3494 24.2641 10.3494C24.3984 10.3494 24.5318 10.298 24.6339 10.1944L26.7465 8.04987C26.7521 8.04416 26.7569 8.03763 26.7625 8.03111C26.7714 8.02131 26.7802 8.01152 26.7883 8.00091C26.7963 7.9903 26.8035 7.9797 26.8108 7.96827C26.818 7.95766 26.8244 7.94706 26.8309 7.93645C26.8381 7.92421 26.8437 7.91115 26.8494 7.89891C26.8526 7.89157 26.8566 7.88504 26.8598 7.87851C26.8614 7.87443 26.8622 7.87035 26.8638 7.86627C26.8686 7.85321 26.8727 7.83934 26.8767 7.82628C26.8799 7.81486 26.8839 7.80262 26.8863 7.7912C26.8895 7.77814 26.8912 7.76508 26.8928 7.75203C26.8944 7.73979 26.8968 7.72673 26.8976 7.71449C26.8984 7.70143 26.8984 7.68919 26.8984 7.67614C26.8984 7.66308 26.8984 7.65002 26.8976 7.63778C26.8968 7.62554 26.8944 7.61249 26.8928 7.60025C26.8912 7.58719 26.8887 7.57413 26.8863 7.56108C26.8839 7.54884 26.8799 7.53741 26.8767 7.52599C26.8727 7.51212 26.8686 7.49906 26.8638 7.486C26.8622 7.48192 26.8614 7.47784 26.8598 7.47376C26.8566 7.46642 26.8526 7.45989 26.8494 7.45336C26.8437 7.44031 26.8373 7.42807 26.8309 7.41583C26.8244 7.40522 26.818 7.39461 26.8108 7.384C26.8035 7.37258 26.7963 7.36197 26.7883 7.35136C26.7802 7.34075 26.7714 7.33096 26.7625 7.32117C26.7569 7.31546 26.7521 7.30811 26.7465 7.3024L24.6331 5.15545C24.4289 4.94818 24.0985 4.94818 23.8944 5.15545C23.6902 5.36272 23.6902 5.6981 23.8944 5.90537L25.1146 7.14409H20.9932C20.7046 7.14409 20.4707 7.38155 20.4707 7.67451C20.4707 7.96746 20.7046 8.20492 20.9932 8.20492V8.20573Z" fill="white"/>
<path d="M30.8739 12.4637C30.7605 12.3144 30.5821 12.2255 30.3964 12.2255H17.4799L16.8521 9.89246C16.7806 9.62725 16.5418 9.44202 16.2701 9.44202H13.6029C13.2701 9.44202 13 9.7162 13 10.054C13 10.3919 13.2701 10.666 13.6029 10.666H15.8103L18.4687 20.5513C18.5402 20.8165 18.779 21.0018 19.0507 21.0018H28.451C28.7252 21.0018 28.9647 20.8141 29.0346 20.5448L30.9808 12.9933C31.0274 12.8114 30.988 12.6139 30.8747 12.4646L30.8739 12.4637ZM29.6158 13.4495L27.9848 19.7769H19.5105L17.8087 13.4495H29.6158Z" fill="white"/>
<path d="M21.4982 18.1652C21.5472 18.4606 21.7972 18.6752 22.0922 18.6752C22.126 18.6752 22.1598 18.6719 22.1935 18.6662C22.3527 18.6393 22.491 18.5504 22.5842 18.4173C22.6775 18.2843 22.7144 18.1219 22.6871 17.9604L22.1927 14.9925C22.1662 14.8309 22.0786 14.6906 21.9475 14.5959C21.8165 14.5013 21.6566 14.4637 21.4982 14.4915C21.1702 14.5478 20.9492 14.8644 21.0046 15.1973L21.499 18.1652H21.4982Z" fill="white"/>
<path d="M25.3242 18.6697C25.3499 18.6729 25.3756 18.6745 25.4013 18.6745C25.7036 18.6745 25.9608 18.4444 25.9986 18.1401L26.3772 15.1355C26.3973 14.9731 26.3547 14.8131 26.2558 14.6834C26.157 14.5545 26.0147 14.4712 25.8555 14.4508C25.6964 14.4296 25.538 14.4729 25.411 14.5724C25.2832 14.6728 25.2012 14.8172 25.1811 14.9796L24.8025 17.9842C24.7824 18.1466 24.825 18.3065 24.9238 18.4363C25.0227 18.566 25.165 18.6493 25.3242 18.6697Z" fill="white"/>
<path d="M20.3453 21.6626C19.2296 21.6626 18.322 22.5839 18.322 23.7165C18.322 24.8492 19.2296 25.7704 20.3453 25.7704C21.4611 25.7704 22.3687 24.8492 22.3687 23.7165C22.3687 22.5839 21.4611 21.6626 20.3453 21.6626ZM20.3453 24.7088C19.806 24.7088 19.367 24.2633 19.367 23.7157C19.367 23.1682 19.806 22.7226 20.3453 22.7226C20.8847 22.7226 21.3236 23.1682 21.3236 23.7157C21.3236 24.2633 20.8847 24.7088 20.3453 24.7088Z" fill="white"/>
<path d="M26.2672 21.6626C25.1515 21.6626 24.2439 22.5839 24.2439 23.7165C24.2439 24.8492 25.1515 25.7704 26.2672 25.7704C27.383 25.7704 28.2905 24.8492 28.2905 23.7165C28.2905 22.5839 27.383 21.6626 26.2672 21.6626ZM26.2672 24.7088C25.7278 24.7088 25.2889 24.2633 25.2889 23.7157C25.2889 23.1682 25.7278 22.7226 26.2672 22.7226C26.8066 22.7226 27.2455 23.1682 27.2455 23.7157C27.2455 24.2633 26.8066 24.7088 26.2672 24.7088Z" fill="white"/>
</svg>
