<svg width="126" height="32" viewBox="0 0 126 32" fill="none" xmlns="http://www.w3.org/2000/svg">
<rect width="126" height="32" rx="16" fill="#8800FF"/>
<path d="M51.1787 18.2751L52.9512 12.5574H54.4404L51.9307 19.6667H50.9395L51.1787 18.2751ZM49.543 12.5574L51.3057 18.2751L51.5596 19.6667H50.5586L48.0586 12.5574H49.543ZM57.7607 18.5437V16.1072C57.7607 15.9281 57.7298 15.7735 57.668 15.6433C57.6061 15.5131 57.5117 15.4122 57.3848 15.3406C57.2578 15.269 57.0967 15.2332 56.9014 15.2332C56.7288 15.2332 56.5775 15.2625 56.4473 15.321C56.3203 15.3796 56.2227 15.4626 56.1543 15.5701C56.0859 15.6742 56.0518 15.7947 56.0518 15.9314H54.7578C54.7578 15.7133 54.8099 15.5066 54.9141 15.3113C55.0182 15.1127 55.1663 14.9369 55.3584 14.7839C55.5537 14.6277 55.7865 14.5056 56.0566 14.4177C56.3301 14.3298 56.6361 14.2859 56.9746 14.2859C57.375 14.2859 57.7314 14.3542 58.0439 14.491C58.3597 14.6244 58.6071 14.8263 58.7861 15.0964C58.9684 15.3666 59.0596 15.7068 59.0596 16.1169V18.4216C59.0596 18.6853 59.0758 18.9115 59.1084 19.1003C59.1442 19.2859 59.1963 19.447 59.2646 19.5837V19.6667H57.9512C57.8893 19.5333 57.8421 19.364 57.8096 19.1589C57.777 18.9506 57.7607 18.7455 57.7607 18.5437ZM57.9414 16.449L57.9512 17.2156H57.1357C56.9339 17.2156 56.7565 17.2367 56.6035 17.2791C56.4505 17.3181 56.3252 17.3767 56.2275 17.4548C56.1299 17.5297 56.0566 17.6208 56.0078 17.7283C55.959 17.8324 55.9346 17.9513 55.9346 18.0847C55.9346 18.2149 55.9639 18.3321 56.0225 18.4363C56.0843 18.5404 56.1722 18.6235 56.2861 18.6853C56.4033 18.7439 56.54 18.7732 56.6963 18.7732C56.9242 18.7732 57.1227 18.7276 57.292 18.6365C57.4613 18.5421 57.5931 18.4281 57.6875 18.2947C57.7819 18.1612 57.8324 18.0343 57.8389 17.9138L58.21 18.4705C58.1644 18.6039 58.096 18.7455 58.0049 18.8953C57.9137 19.045 57.7965 19.185 57.6533 19.3152C57.5101 19.4454 57.3376 19.5528 57.1357 19.6375C56.9339 19.7221 56.6995 19.7644 56.4326 19.7644C56.0908 19.7644 55.7848 19.696 55.5146 19.5593C55.2445 19.4226 55.0312 19.2354 54.875 18.9978C54.7188 18.7602 54.6406 18.49 54.6406 18.1873C54.6406 17.9073 54.6927 17.6599 54.7969 17.4451C54.901 17.2302 55.0557 17.0496 55.2607 16.9031C55.4658 16.7533 55.7197 16.641 56.0225 16.5662C56.3285 16.488 56.6784 16.449 57.0723 16.449H57.9414ZM55.1875 12.9871C55.1875 12.821 55.2477 12.6827 55.3682 12.572C55.4886 12.4581 55.6416 12.4011 55.8271 12.4011C56.016 12.4011 56.1689 12.4581 56.2861 12.572C56.4066 12.6827 56.4668 12.821 56.4668 12.9871C56.4668 13.1498 56.4066 13.2882 56.2861 13.4021C56.1689 13.5128 56.016 13.5681 55.8271 13.5681C55.6416 13.5681 55.4886 13.5128 55.3682 13.4021C55.2477 13.2882 55.1875 13.1498 55.1875 12.9871ZM57.5166 12.9919C57.5166 12.8259 57.5752 12.6876 57.6924 12.5769C57.8128 12.463 57.9674 12.406 58.1562 12.406C58.3418 12.406 58.4948 12.463 58.6152 12.5769C58.7357 12.6876 58.7959 12.8259 58.7959 12.9919C58.7959 13.1547 58.7357 13.2931 58.6152 13.407C58.4948 13.5177 58.3418 13.573 58.1562 13.573C57.9674 13.573 57.8128 13.5177 57.6924 13.407C57.5752 13.2931 57.5166 13.1547 57.5166 12.9919ZM61.5889 12.1667V19.6667H60.2949V12.1667H61.5889ZM62.8828 14.3835H64.1816V20.0574C64.1816 20.4317 64.1133 20.7491 63.9766 21.0095C63.8431 21.2699 63.6494 21.4669 63.3955 21.6003C63.1416 21.7338 62.8307 21.8005 62.4629 21.8005C62.349 21.8005 62.235 21.794 62.1211 21.781C62.0072 21.768 61.8949 21.7468 61.7842 21.7175L61.7891 20.7214C61.8607 20.7345 61.9339 20.7442 62.0088 20.7507C62.0837 20.7605 62.1585 20.7654 62.2334 20.7654C62.3734 20.7654 62.4906 20.741 62.585 20.6921C62.6826 20.6433 62.7559 20.5668 62.8047 20.4626C62.8568 20.3585 62.8828 20.2234 62.8828 20.0574V14.3835ZM62.7754 13.0017C62.7754 12.8097 62.8405 12.6501 62.9707 12.5232C63.1042 12.3962 63.2832 12.3328 63.5078 12.3328C63.7324 12.3328 63.9098 12.3962 64.04 12.5232C64.1735 12.6501 64.2402 12.8097 64.2402 13.0017C64.2402 13.1905 64.1735 13.3484 64.04 13.4753C63.9098 13.6023 63.7324 13.6658 63.5078 13.6658C63.2832 13.6658 63.1042 13.6023 62.9707 13.4753C62.8405 13.3484 62.7754 13.1905 62.7754 13.0017Z" fill="white"/>
<path d="M99.9932 7.95698H104.115L102.894 9.15816C102.69 9.35915 102.69 9.68437 102.894 9.88536C102.996 9.98585 103.13 10.0357 103.264 10.0357C103.398 10.0357 103.532 9.98585 103.634 9.88536L105.746 7.80584C105.752 7.8003 105.757 7.79397 105.763 7.78764C105.771 7.77815 105.78 7.76865 105.788 7.75836C105.796 7.74808 105.804 7.73779 105.811 7.72671C105.818 7.71643 105.824 7.70614 105.831 7.69585C105.838 7.68398 105.844 7.67132 105.849 7.65945C105.853 7.65233 105.857 7.646 105.86 7.63967C105.861 7.63571 105.862 7.63176 105.864 7.6278C105.869 7.61514 105.873 7.60169 105.877 7.58903C105.88 7.57795 105.884 7.56608 105.886 7.555C105.89 7.54234 105.891 7.52968 105.893 7.51702C105.894 7.50515 105.897 7.49249 105.898 7.48062C105.898 7.46796 105.898 7.45609 105.898 7.44343C105.898 7.43077 105.898 7.41811 105.898 7.40624C105.897 7.39437 105.894 7.38171 105.893 7.36984C105.891 7.35718 105.889 7.34452 105.886 7.33186C105.884 7.31999 105.88 7.30891 105.877 7.29783C105.873 7.28438 105.869 7.27172 105.864 7.25906C105.862 7.2551 105.861 7.25115 105.86 7.24719C105.857 7.24007 105.853 7.23374 105.849 7.22741C105.844 7.21475 105.837 7.20288 105.831 7.19101C105.824 7.18072 105.818 7.17043 105.811 7.16015C105.804 7.14907 105.796 7.13878 105.788 7.1285C105.78 7.11821 105.771 7.10871 105.763 7.09922C105.757 7.09368 105.752 7.08656 105.746 7.08102L103.633 4.99913C103.429 4.79814 103.099 4.79814 102.894 4.99913C102.69 5.20012 102.69 5.52534 102.894 5.72633L104.115 6.92751H99.9932C99.7046 6.92751 99.4707 7.15777 99.4707 7.44185C99.4707 7.72592 99.7046 7.95619 99.9932 7.95619V7.95698Z" fill="white"/>
<path d="M109.874 12.0859C109.761 11.9411 109.582 11.8549 109.396 11.8549H96.4799L95.8521 9.59256C95.7806 9.33539 95.5418 9.15576 95.2701 9.15576H92.6029C92.2701 9.15576 92 9.42164 92 9.74923C92 10.0768 92.2701 10.3427 92.6029 10.3427H94.8103L97.4687 19.9284C97.5402 20.1856 97.779 20.3652 98.0507 20.3652H107.451C107.725 20.3652 107.965 20.1832 108.035 19.9221L109.981 12.5995C110.027 12.423 109.988 12.2315 109.875 12.0867L109.874 12.0859ZM108.616 13.0418L106.985 19.1775H98.5105L96.8087 13.0418H108.616Z" fill="white"/>
<path d="M100.498 17.6146C100.547 17.9011 100.797 18.1092 101.092 18.1092C101.126 18.1092 101.16 18.106 101.194 18.1005C101.353 18.0744 101.491 17.9881 101.584 17.8591C101.677 17.7302 101.714 17.5727 101.687 17.416L101.193 14.5381C101.166 14.3814 101.079 14.2453 100.948 14.1535C100.817 14.0617 100.657 14.0253 100.498 14.0522C100.17 14.1068 99.9492 14.4139 100.005 14.7367L100.499 17.6146H100.498Z" fill="white"/>
<path d="M104.324 18.1039C104.35 18.1071 104.375 18.1087 104.401 18.1087C104.703 18.1087 104.961 17.8855 104.998 17.5904L105.377 14.6768C105.397 14.5194 105.354 14.3643 105.256 14.2384C105.157 14.1134 105.014 14.0327 104.855 14.0129C104.696 13.9924 104.538 14.0343 104.411 14.1308C104.283 14.2282 104.201 14.3682 104.181 14.5257L103.802 17.4392C103.782 17.5967 103.825 17.7518 103.924 17.8776C104.022 18.0034 104.165 18.0841 104.324 18.1039Z" fill="white"/>
<path d="M99.3456 21.0061C98.2298 21.0061 97.3223 21.8995 97.3223 22.9978C97.3223 24.0961 98.2298 24.9895 99.3456 24.9895C100.461 24.9895 101.369 24.0961 101.369 22.9978C101.369 21.8995 100.461 21.0061 99.3456 21.0061ZM99.3456 23.96C98.8062 23.96 98.3673 23.528 98.3673 22.997C98.3673 22.466 98.8062 22.034 99.3456 22.034C99.885 22.034 100.324 22.466 100.324 22.997C100.324 23.528 99.885 23.96 99.3456 23.96Z" fill="white"/>
<path d="M105.267 21.0061C104.151 21.0061 103.244 21.8995 103.244 22.9978C103.244 24.0961 104.151 24.9895 105.267 24.9895C106.383 24.9895 107.29 24.0961 107.29 22.9978C107.29 21.8995 106.383 21.0061 105.267 21.0061ZM105.267 23.96C104.728 23.96 104.289 23.528 104.289 22.997C104.289 22.466 104.728 22.034 105.267 22.034C105.806 22.034 106.245 22.466 106.245 22.997C106.245 23.528 105.806 23.96 105.267 23.96Z" fill="white"/>
</svg>
