<svg width="18" height="21" viewBox="0 0 18 21" fill="none" xmlns="http://www.w3.org/2000/svg">
<path d="M7.99321 3.20573H12.1146L10.8944 4.44445C10.6902 4.65172 10.6902 4.98711 10.8944 5.19437C10.9964 5.29801 11.1299 5.34942 11.2641 5.34942C11.3984 5.34942 11.5318 5.29801 11.6339 5.19437L13.7465 3.04987C13.7521 3.04416 13.7569 3.03763 13.7625 3.03111C13.7714 3.02131 13.7802 3.01152 13.7883 3.00091C13.7963 2.9903 13.8035 2.9797 13.8108 2.96827C13.818 2.95766 13.8244 2.94706 13.8309 2.93645C13.8381 2.92421 13.8437 2.91115 13.8494 2.89891C13.8526 2.89157 13.8566 2.88504 13.8598 2.87851C13.8614 2.87443 13.8622 2.87035 13.8638 2.86627C13.8686 2.85321 13.8727 2.83934 13.8767 2.82628C13.8799 2.81486 13.8839 2.80262 13.8863 2.7912C13.8895 2.77814 13.8912 2.76508 13.8928 2.75203C13.8944 2.73979 13.8968 2.72673 13.8976 2.71449C13.8984 2.70143 13.8984 2.68919 13.8984 2.67614C13.8984 2.66308 13.8984 2.65002 13.8976 2.63778C13.8968 2.62554 13.8944 2.61249 13.8928 2.60025C13.8912 2.58719 13.8887 2.57413 13.8863 2.56108C13.8839 2.54884 13.8799 2.53741 13.8767 2.52599C13.8727 2.51212 13.8686 2.49906 13.8638 2.486C13.8622 2.48192 13.8614 2.47784 13.8598 2.47376C13.8566 2.46642 13.8526 2.45989 13.8494 2.45336C13.8437 2.44031 13.8373 2.42807 13.8309 2.41583C13.8244 2.40522 13.818 2.39461 13.8108 2.384C13.8035 2.37258 13.7963 2.36197 13.7883 2.35136C13.7802 2.34075 13.7714 2.33096 13.7625 2.32117C13.7569 2.31546 13.7521 2.30811 13.7465 2.3024L11.6331 0.155452C11.4289 -0.0518173 11.0985 -0.0518173 10.8944 0.155452C10.6902 0.362721 10.6902 0.698105 10.8944 0.905374L12.1146 2.14409H7.99321C7.70463 2.14409 7.4707 2.38155 7.4707 2.67451C7.4707 2.96746 7.70463 3.20492 7.99321 3.20492V3.20573Z" fill="white"/>
<path d="M17.8739 7.46374C17.7605 7.31441 17.5821 7.22546 17.3964 7.22546H4.47993L3.85211 4.89246C3.78057 4.62725 3.54182 4.44202 3.27011 4.44202H0.602897C0.270098 4.44202 0 4.7162 0 5.05403C0 5.39186 0.270098 5.66605 0.602897 5.66605H2.8103L5.46868 15.5513C5.54022 15.8165 5.77897 16.0018 6.05067 16.0018H15.451C15.7252 16.0018 15.9647 15.8141 16.0346 15.5448L17.9808 7.99334C18.0274 7.81136 17.988 7.61389 17.8747 7.46455L17.8739 7.46374ZM16.6158 8.44949L14.9848 14.7769H6.51048L4.80871 8.44949H16.6158Z" fill="white"/>
<path d="M8.49819 13.1652C8.54722 13.4606 8.79723 13.6752 9.09224 13.6752C9.12601 13.6752 9.15977 13.6719 9.19353 13.6662C9.3527 13.6393 9.49096 13.5504 9.58421 13.4173C9.67746 13.2843 9.71443 13.1219 9.6871 12.9604L9.19273 9.9925C9.1662 9.83093 9.07858 9.69058 8.94755 9.59592C8.81652 9.50126 8.65655 9.46372 8.49819 9.49147C8.17021 9.54777 7.94915 9.86439 8.00462 10.1973L8.49899 13.1652H8.49819Z" fill="white"/>
<path d="M12.3242 13.6697C12.3499 13.6729 12.3756 13.6745 12.4013 13.6745C12.7036 13.6745 12.9608 13.4444 12.9986 13.1401L13.3772 10.1355C13.3973 9.97308 13.3547 9.81314 13.2558 9.6834C13.157 9.55447 13.0147 9.47123 12.8555 9.45083C12.6964 9.42961 12.538 9.47286 12.411 9.57242C12.2832 9.67279 12.2012 9.81722 12.1811 9.97961L11.8025 12.9842C11.7824 13.1466 11.825 13.3065 11.9238 13.4363C12.0227 13.566 12.165 13.6484 12.3242 13.6688V13.6697Z" fill="white"/>
<path d="M7.34534 16.6626C6.22958 16.6626 5.32202 17.5839 5.32202 18.7165C5.32202 19.8492 6.22958 20.7704 7.34534 20.7704C8.46111 20.7704 9.36867 19.8492 9.36867 18.7165C9.36867 17.5839 8.46111 16.6626 7.34534 16.6626ZM7.34534 19.7088C6.80595 19.7088 6.36704 19.2633 6.36704 18.7157C6.36704 18.1682 6.80595 17.7226 7.34534 17.7226C7.88474 17.7226 8.32364 18.1682 8.32364 18.7157C8.32364 19.2633 7.88474 19.7088 7.34534 19.7088Z" fill="white"/>
<path d="M13.2672 16.6626C12.1515 16.6626 11.2439 17.5839 11.2439 18.7165C11.2439 19.8492 12.1515 20.7704 13.2672 20.7704C14.383 20.7704 15.2905 19.8492 15.2905 18.7165C15.2905 17.5839 14.383 16.6626 13.2672 16.6626ZM13.2672 19.7088C12.7278 19.7088 12.2889 19.2633 12.2889 18.7157C12.2889 18.1682 12.7278 17.7226 13.2672 17.7226C13.8066 17.7226 14.2455 18.1682 14.2455 18.7157C14.2455 19.2633 13.8066 19.7088 13.2672 19.7088Z" fill="white"/>
</svg>
