<svg width="22" height="20" viewBox="0 0 22 20" fill="none" xmlns="http://www.w3.org/2000/svg">
<path d="M9.4 0.699999C9.23431 0.479085 8.92091 0.434315 8.7 0.600001C8.47909 0.765687 8.43431 1.07909 8.6 1.3L9.4 0.699999ZM8.6 1.3L14.6001 9.30005L15.4001 8.70005L9.4 0.699999L8.6 1.3Z" fill="#4C525E"/>
<path d="M9 1L3.00006 9.00001" stroke="#4C525E" stroke-linecap="round"/>
<path d="M17 19H1V9H17V19Z" stroke="#4C525E" stroke-width="2" stroke-linejoin="round"/>
<rect x="15" y="5" width="7" height="7" fill="white"/>
<mask id="path-5-inside-1_511_138" fill="white">
<path d="M22 5.5C22 5.04037 21.9095 4.58525 21.7336 4.16061C21.5577 3.73597 21.2999 3.35013 20.9749 3.02513C20.6499 2.70012 20.264 2.44231 19.8394 2.26642C19.4148 2.09053 18.9596 2 18.5 2C18.0404 2 17.5852 2.09053 17.1606 2.26642C16.736 2.44231 16.3501 2.70012 16.0251 3.02513C15.7001 3.35013 15.4423 3.73597 15.2664 4.16061C15.0905 4.58525 15 5.04037 15 5.5H15.9544C15.9544 5.16571 16.0202 4.83469 16.1482 4.52584C16.2761 4.21699 16.4636 3.93637 16.7 3.69998C16.9364 3.4636 17.217 3.27609 17.5258 3.14817C17.8347 3.02024 18.1657 2.95439 18.5 2.95439C18.8343 2.95439 19.1653 3.02024 19.4742 3.14817C19.783 3.27609 20.0636 3.4636 20.3 3.69998C20.5364 3.93637 20.7239 4.21699 20.8518 4.52584C20.9798 4.83469 21.0456 5.16571 21.0456 5.5H22Z"/>
</mask>
<path d="M22 5.5C22 5.04037 21.9095 4.58525 21.7336 4.16061C21.5577 3.73597 21.2999 3.35013 20.9749 3.02513C20.6499 2.70012 20.264 2.44231 19.8394 2.26642C19.4148 2.09053 18.9596 2 18.5 2C18.0404 2 17.5852 2.09053 17.1606 2.26642C16.736 2.44231 16.3501 2.70012 16.0251 3.02513C15.7001 3.35013 15.4423 3.73597 15.2664 4.16061C15.0905 4.58525 15 5.04037 15 5.5H15.9544C15.9544 5.16571 16.0202 4.83469 16.1482 4.52584C16.2761 4.21699 16.4636 3.93637 16.7 3.69998C16.9364 3.4636 17.217 3.27609 17.5258 3.14817C17.8347 3.02024 18.1657 2.95439 18.5 2.95439C18.8343 2.95439 19.1653 3.02024 19.4742 3.14817C19.783 3.27609 20.0636 3.4636 20.3 3.69998C20.5364 3.93637 20.7239 4.21699 20.8518 4.52584C20.9798 4.83469 21.0456 5.16571 21.0456 5.5H22Z" stroke="white" stroke-width="2" mask="url(#path-5-inside-1_511_138)"/>
<rect x="18" y="7" width="1" height="3" fill="black"/>
</svg>
