<svg width="29" height="28" viewBox="0 0 29 28" fill="none" xmlns="http://www.w3.org/2000/svg">
<path d="M14.5 3C15.3284 3 16 2.32843 16 1.5C16 0.671573 15.3284 0 14.5 0C13.6716 0 13 0.671573 13 1.5C13 2.32843 13.6716 3 14.5 3Z" fill="white"/>
<path d="M13.6583 1.94128L8.85767 8.00256L9.38473 8.47112L14.1853 2.40983L13.6583 1.94128Z" fill="white"/>
<path d="M15.3989 1.88777L14.8718 2.35632L19.577 8.29706L20.104 7.8285L15.3989 1.88777Z" fill="white"/>
<path d="M22 17C20.8966 17 20 16.1034 20 15C20 13.8966 20.8966 13 22 13C23.1034 13 24 13.8966 24 15C24 16.1034 23.1034 17 22 17ZM22 13.8374C21.3596 13.8374 20.8374 14.3596 20.8374 15C20.8374 15.6404 21.3596 16.1626 22 16.1626C22.6404 16.1626 23.1626 15.6404 23.1626 15C23.1626 14.3596 22.6404 13.8374 22 13.8374Z" fill="white"/>
<path d="M26 11H3V25H26V11ZM4.38363 23.9896C5.02269 22.596 5.84935 21.1327 6.87535 19.983C7.90135 18.8391 9.05047 17.7939 10.6393 18.6358C12.8848 19.832 13.8991 22.5786 15.9921 23.9896H4.38363ZM25.0209 24.0012C25.0209 24.0012 22.0426 24.2045 19.7912 23.9722C19.0525 23.8967 18.3607 23.7748 17.8389 23.5832C16.0918 22.9444 14.9778 21.4753 13.946 20.0178C14.8313 18.8507 16.1856 18.1771 17.6571 18.6475C18.6362 18.961 19.2577 20.0991 19.9144 20.825C21.2863 22.3289 22.963 22.9677 25.015 22.9444V24.0012H25.0209ZM25.0209 21.7831C23.9421 21.7599 22.8223 21.5857 21.896 21.0166C20.3599 20.0817 19.8205 18.0842 17.9737 17.5268C16.1328 16.9693 14.2919 17.6893 13.1486 19.1701C12.3044 18.3223 11.0614 17.2364 9.80678 17.1377C7.9717 16.9925 6.35942 18.6591 5.35687 19.9888L4.03186 22.0153V12.0452L25.0209 12.0162V21.7831Z" fill="white"/>
<path d="M28.9939 28H0V8H29V28H28.9939ZM1.03943 26.9464H27.9606V9.05361H1.03943V26.9464Z" fill="white"/>
</svg>
