<svg width="863" height="27" viewBox="0 0 863 27" fill="none" xmlns="http://www.w3.org/2000/svg">
<path d="M0 18C0 17.4477 0.447715 17 1 17H833C833.552 17 834 17.4477 834 18C834 18.5523 833.552 19 833 19H1.00002C0.447737 19 0 18.5523 0 18Z" fill="#4C525E"/>
<path d="M856 16C854.897 16 854 15.1034 854 14C854 12.8966 854.897 12 856 12C857.103 12 858 12.8966 858 14C858 15.1034 857.103 16 856 16ZM856 12.8374C855.36 12.8374 854.837 13.3596 854.837 14C854.837 14.6404 855.36 15.1626 856 15.1626C856.64 15.1626 857.163 14.6404 857.163 14C857.163 13.3596 856.64 12.8374 856 12.8374Z" fill="white"/>
<path d="M860 10H837V24H860V10ZM838.384 22.9896C839.023 21.596 839.849 20.1327 840.875 18.983C841.901 17.8391 843.05 16.7939 844.639 17.6358C846.885 18.832 847.899 21.5786 849.992 22.9896H838.384ZM859.021 23.0012C859.021 23.0012 856.043 23.2045 853.791 22.9722C853.053 22.8967 852.361 22.7748 851.839 22.5832C850.092 21.9444 848.978 20.4753 847.946 19.0178C848.831 17.8507 850.186 17.1771 851.657 17.6475C852.636 17.961 853.258 19.0991 853.914 19.825C855.286 21.3289 856.963 21.9677 859.015 21.9444V23.0012H859.021ZM859.021 20.7831C857.942 20.7599 856.822 20.5857 855.896 20.0166C854.36 19.0817 853.821 17.0842 851.974 16.5268C850.133 15.9693 848.292 16.6893 847.149 18.1701C846.304 17.3223 845.061 16.2364 843.807 16.1377C841.972 15.9925 840.359 17.6591 839.357 18.9888L838.032 21.0153V11.0452L859.021 11.0162V20.7831Z" fill="white"/>
<path d="M862.994 27H834V7H863V27H862.994ZM835.039 25.9464H861.961V8.05361H835.039V25.9464Z" fill="white"/>
<path d="M847.658 0.941276L842.858 7.00256L843.385 7.47112L848.185 1.40983L847.658 0.941276Z" fill="white"/>
<path d="M849.399 0.887769L848.872 1.35632L853.577 7.29706L854.104 6.8285L849.399 0.887769Z" fill="white"/>
<rect width="196" height="2" rx="1" transform="matrix(1 0 0 -1 0 19)" fill="#BC64F4"/>
</svg>
