<svg width="875" height="20" viewBox="0 0 875 20" fill="none" xmlns="http://www.w3.org/2000/svg">
<path d="M12 11C12 10.4477 12.4477 10 13 10H845C845.552 10 846 10.4477 846 11C846 11.5523 845.552 12 845 12H13C12.4477 12 12 11.5523 12 11Z" fill="#4C525E"/>
<path d="M868 9C866.897 9 866 8.10345 866 7C866 5.89655 866.897 5 868 5C869.103 5 870 5.89655 870 7C870 8.10345 869.103 9 868 9ZM868 5.83744C867.36 5.83744 866.837 6.35961 866.837 7C866.837 7.64039 867.36 8.16256 868 8.16256C868.64 8.16256 869.163 7.64039 869.163 7C869.163 6.35961 868.64 5.83744 868 5.83744Z" fill="white"/>
<path d="M872 3H849V17H872V3ZM850.384 15.9896C851.023 14.596 851.849 13.1327 852.875 11.983C853.901 10.8391 855.05 9.79386 856.639 10.6358C858.885 11.832 859.899 14.5786 861.992 15.9896H850.384ZM871.021 16.0012C871.021 16.0012 868.043 16.2045 865.791 15.9722C865.053 15.8967 864.361 15.7748 863.839 15.5832C862.092 14.9444 860.978 13.4753 859.946 12.0178C860.831 10.8507 862.186 10.1771 863.657 10.6475C864.636 10.961 865.258 12.0991 865.914 12.825C867.286 14.3289 868.963 14.9677 871.015 14.9444V16.0012H871.021ZM871.021 13.7831C869.942 13.7599 868.822 13.5857 867.896 13.0166C866.36 12.0817 865.821 10.0842 863.974 9.52675C862.133 8.96931 860.292 9.68934 859.149 11.1701C858.304 10.3223 857.061 9.23642 855.807 9.1377C853.972 8.99253 852.359 10.6591 851.357 11.9888L850.032 14.0153V4.04521L871.021 4.01618V13.7831Z" fill="white"/>
<path d="M874.994 20H846V0H875V20H874.994ZM847.039 18.9464H873.961V1.05361H847.039V18.9464Z" fill="white"/>
<rect width="28" height="2" rx="1" transform="matrix(1 0 0 -1 0 12)" fill="#BC64F4"/>
</svg>
