<svg width="16" height="21" viewBox="0 0 16 21" fill="none" xmlns="http://www.w3.org/2000/svg">
<g opacity="0.2">
<path d="M12 17.5C12 17.9596 11.9095 18.4148 11.7336 18.8394C11.5577 19.264 11.2999 19.6499 10.9749 19.9749C10.6499 20.2999 10.264 20.5577 9.83939 20.7336C9.41475 20.9095 8.95963 21 8.5 21C8.04037 21 7.58525 20.9095 7.16061 20.7336C6.73597 20.5577 6.35013 20.2999 6.02513 19.9749C5.70012 19.6499 5.44231 19.264 5.26642 18.8394C5.09053 18.4148 5 17.9596 5 17.5L8.5 17.5H12Z" fill="white"/>
<path d="M12.0287 2.56596C12.5523 3.05875 12.9641 3.64046 13.2439 4.27618C14.6045 7.36772 14.9472 11.2356 14.994 15H1.00525C1.04908 11.0138 1.38743 7.38602 2.75608 4.27618C3.03586 3.64046 3.44773 3.05875 3.97132 2.56596C4.49503 2.07306 5.12001 1.67909 5.812 1.40932C6.50406 1.13952 7.24771 1 8 1C8.75229 1 9.49594 1.13952 10.188 1.40932C10.88 1.67909 11.505 2.07306 12.0287 2.56596Z" stroke="white" stroke-width="2"/>
</g>
</svg>
