<svg width="86" height="57" viewBox="0 0 86 57" fill="none" xmlns="http://www.w3.org/2000/svg">
<path d="M9.6307 32.5286C8.95528 32.6137 8.32654 32.6275 7.73899 32.5698C7.15143 32.5122 6.61604 32.4215 6.12733 32.2925L7.10201 40.0735C6.89884 40.1449 6.62703 40.2382 6.28657 40.3535C5.94612 40.4661 5.55625 40.5512 5.11421 40.6061C4.29877 40.7077 3.67552 40.6336 3.24446 40.381C2.81066 40.1284 2.54708 39.6177 2.45099 38.849L0.0623283 19.8001C-0.00631139 19.2427 0.0458548 18.7732 0.224318 18.3971C0.400035 18.0209 0.715778 17.6503 1.16605 17.2879C1.79205 16.8074 2.58552 16.3599 3.54922 15.9453C4.51292 15.5307 5.62214 15.2424 6.87962 15.0859C8.1371 14.9294 9.36163 14.9459 10.4846 15.1491C11.6075 15.3522 12.6097 15.7558 13.491 16.3681C14.3696 16.9776 15.0999 17.804 15.6792 18.8391C16.2585 19.877 16.6429 21.1509 16.8324 22.6637C17.0163 24.1299 16.9669 25.434 16.6841 26.5789C16.4013 27.7238 15.9428 28.715 15.3031 29.5524C14.6634 30.3898 13.8616 31.057 12.8952 31.5539C11.9288 32.0536 10.8415 32.3776 9.63344 32.5286H9.6307ZM8.52423 29.0884C9.91899 28.9127 10.9596 28.3471 11.6432 27.3861C12.3269 26.4279 12.5547 25.0387 12.3269 23.2266C12.099 21.4145 11.5169 20.0554 10.6026 19.3663C9.68836 18.6771 8.59287 18.4136 7.31342 18.5728C6.68468 18.6524 6.1438 18.8034 5.68804 19.0258C5.23227 19.2482 4.83965 19.4734 4.51567 19.704L5.63862 28.6711C6.03947 28.8578 6.47602 28.9923 6.94826 29.0747C7.4205 29.157 7.94491 29.1625 8.52697 29.0884H8.52423Z" fill="#8800FF"/>
<path d="M21.4373 24.1737C21.9123 25.3187 22.6234 26.1039 23.5761 26.5295C24.5261 26.955 25.6546 27.0841 26.956 26.9221C27.9334 26.7985 28.8147 26.5404 29.6055 26.1478C30.3934 25.7552 31.0249 25.3626 31.4972 24.9727C31.8459 25.1182 32.1451 25.3406 32.395 25.6399C32.6448 25.9392 32.7931 26.2769 32.8398 26.6475C32.8974 27.1143 32.7931 27.5453 32.524 27.9462C32.2549 28.347 31.8623 28.7095 31.3489 29.0334C30.8355 29.3574 30.2122 29.6375 29.4874 29.8681C28.7598 30.1015 27.9663 30.2717 27.107 30.3788C25.7342 30.5517 24.4602 30.5215 23.2851 30.2909C22.11 30.0603 21.0749 29.6182 20.1771 28.962C19.2793 28.3058 18.5352 27.4492 17.9422 26.3894C17.3492 25.3296 16.9593 24.0557 16.7726 22.5676C16.5914 21.1261 16.6545 19.8412 16.9648 18.7155C17.2723 17.5898 17.7582 16.6206 18.4254 15.8052C19.0899 14.9898 19.9025 14.3445 20.858 13.8696C21.8135 13.3946 22.8513 13.0871 23.966 12.9498C25.1054 12.807 26.1735 12.8564 27.1729 13.098C28.1723 13.3397 29.0481 13.7378 29.8031 14.2924C30.5582 14.847 31.1842 15.5499 31.6784 16.3955C32.1753 17.2439 32.4883 18.1911 32.6201 19.2372C32.7025 19.8879 32.5926 20.3986 32.2989 20.7665C32.0023 21.1344 31.5576 21.4034 30.9645 21.5709L21.4401 24.182L21.4373 24.1737ZM24.3806 16.2582C23.2412 16.401 22.3351 16.8979 21.6625 17.7518C20.9898 18.6029 20.6933 19.7341 20.7756 21.1399L28.3782 19.0175C28.1777 18.1691 27.7467 17.4608 27.085 16.8952C26.4233 16.3296 25.5228 16.1154 24.3833 16.2582H24.3806Z" fill="#B557FF"/>
<path d="M43.1925 14.7867C42.5638 14.3941 41.7621 14.2568 40.7847 14.3804C40.1092 14.4655 39.497 14.6248 38.9479 14.8581C38.3987 15.0915 37.9292 15.3633 37.5449 15.6708L39.1263 28.3005C38.9231 28.3719 38.6513 28.4653 38.3109 28.5806C37.9704 28.6931 37.5806 28.7783 37.1385 28.8332C36.3231 28.9347 35.6998 28.8606 35.2688 28.608C34.835 28.3554 34.5714 27.8448 34.4753 27.076L33.0723 15.8767C33.0037 15.3194 33.0613 14.8499 33.2508 14.4737C33.4402 14.0949 33.7587 13.7132 34.2062 13.3261C34.8212 12.777 35.6696 12.2745 36.7459 11.8215C37.8222 11.3685 39.0357 11.0555 40.3865 10.888C42.7807 10.5887 44.7026 10.8853 46.1495 11.7776C47.5965 12.6726 48.4476 14.1415 48.7029 16.1897L50.0483 26.936C49.8671 27.0046 49.6007 27.098 49.2493 27.2133C48.8979 27.3286 48.5135 27.4109 48.0934 27.4631C47.256 27.5674 46.6273 27.4933 46.2044 27.238C45.7844 26.9826 45.5235 26.472 45.4274 25.7059L44.321 16.8789C44.1947 15.8795 43.8185 15.1821 43.1898 14.7867H43.1925Z" fill="#FF48A4"/>
<path d="M63.664 20.5167C63.8672 22.1448 63.4224 23.4929 62.327 24.5637C61.2315 25.6344 59.521 26.3153 57.1954 26.6064C56.2427 26.7272 55.3669 26.7656 54.5707 26.7217C53.7744 26.6805 53.0743 26.5597 52.4703 26.3648C51.8663 26.1698 51.383 25.898 51.0234 25.5548C50.661 25.2116 50.4523 24.8053 50.3919 24.3413C50.337 23.8992 50.3864 23.5039 50.5429 23.1524C50.6994 22.801 50.9273 22.5017 51.2265 22.2519C51.9294 22.5896 52.7256 22.8669 53.6179 23.0865C54.5075 23.3062 55.5097 23.3446 56.6271 23.2046C57.5798 23.0865 58.2827 22.8367 58.7302 22.4633C59.1805 22.0871 59.37 21.6204 59.2986 21.063C59.1778 20.1103 58.4035 19.5694 56.9703 19.4404L54.9605 19.2317C53.1896 19.0533 51.8416 18.6195 50.9163 17.9303C49.991 17.2439 49.4474 16.2363 49.2799 14.9102C49.0905 13.3974 49.5408 12.096 50.6335 11.0032C51.7235 9.91047 53.3626 9.22681 55.5508 8.95226C56.3882 8.84792 57.168 8.81498 57.8956 8.85341C58.6204 8.89185 59.2601 9.00168 59.8147 9.18014C60.3693 9.3586 60.8114 9.60021 61.1463 9.89948C61.4786 10.2015 61.6735 10.5722 61.7284 11.0142C61.7806 11.4315 61.7339 11.8104 61.5856 12.1481C61.4374 12.4858 61.2479 12.7631 61.0173 12.98C60.7894 12.8675 60.4984 12.7604 60.1442 12.6643C59.79 12.5682 59.4002 12.4858 58.9801 12.4199C58.5573 12.354 58.1152 12.3101 57.6512 12.2854C57.1872 12.2607 56.7342 12.2772 56.2922 12.3321C55.3861 12.4446 54.6942 12.6808 54.2192 13.0349C53.7442 13.3891 53.5411 13.8339 53.607 14.3693C53.6564 14.7647 53.8431 15.0722 54.1643 15.2918C54.4856 15.5115 55.0182 15.657 55.7595 15.7284L57.5222 15.9315C59.5072 16.132 60.9844 16.6015 61.9508 17.3428C62.9173 18.0841 63.4883 19.1411 63.6586 20.5139L63.664 20.5167Z" fill="#FF8040"/>
<path d="M67.919 18.3532C68.3939 19.4981 69.1051 20.2834 70.0578 20.7089C71.0077 21.1345 72.1362 21.2635 73.4376 21.1015C74.415 20.978 75.2964 20.7199 76.0871 20.3273C76.8751 19.9347 77.5065 19.542 77.9788 19.1522C78.3275 19.2977 78.6268 19.5201 78.8766 19.8194C79.1265 20.1186 79.2747 20.4563 79.3214 20.827C79.379 21.2937 79.2747 21.7248 79.0056 22.1256C78.7366 22.5265 78.344 22.8889 77.8305 23.2129C77.3171 23.5369 76.6966 23.8169 75.969 24.0476C75.2414 24.2809 74.448 24.4512 73.5886 24.5582C72.2158 24.7312 70.9419 24.701 69.7695 24.4704C68.5944 24.2397 67.5593 23.7977 66.6615 23.1415C65.7637 22.4853 65.0196 21.6287 64.4266 20.5689C63.8335 19.5091 63.4437 18.2351 63.257 16.747C63.0757 15.3056 63.1389 14.0207 63.4491 12.895C63.7567 11.7693 64.2426 10.8001 64.9098 9.98466C65.5742 9.16922 66.3869 8.52401 67.3424 8.04902C68.2979 7.57404 69.3357 7.26653 70.4504 7.12925C71.5651 6.99197 72.6578 7.0359 73.6572 7.27751C74.6566 7.51912 75.5325 7.91723 76.2875 8.47184C77.0425 9.02645 77.6685 9.72932 78.1627 10.575C78.6597 11.4233 78.9727 12.3706 79.1045 13.4166C79.1868 14.0673 79.077 14.578 78.7832 14.9459C78.4867 15.3138 78.0419 15.5829 77.4489 15.7504L67.9245 18.3614L67.919 18.3532ZM70.8595 10.4349C69.7201 10.5777 68.814 11.0747 68.1414 11.9258C67.4687 12.7769 67.1722 13.9081 67.2545 15.3138L74.8543 13.1915C74.6539 12.3431 74.2228 11.6348 73.5611 11.0692C72.8995 10.5036 71.9989 10.2894 70.8595 10.4322V10.4349Z" fill="#FFB83B"/>
<path d="M84.747 22.7654C84.3956 22.8807 84.0112 22.9631 83.5911 23.0153C82.7537 23.1196 82.125 23.0455 81.7021 22.7901C81.2793 22.5375 81.0212 22.0241 80.9251 21.2581L78.3333 0.57283C78.509 0.47948 78.7754 0.380639 79.1295 0.279052C79.4837 0.177466 79.8681 0.0978435 80.2882 0.0456774C81.1256 -0.0586549 81.7543 0.0154759 82.1771 0.270815C82.6 0.526155 82.858 1.03683 82.9541 1.80285L85.546 22.4881C85.3648 22.5567 85.0984 22.6501 84.747 22.7654Z" fill="#FFB83B"/>
<path d="M55.2186 36.7047C55.0265 36.5317 54.7601 36.4631 54.4224 36.4988C54.0847 36.5345 53.8102 36.6745 53.607 36.9243C53.4011 37.1715 53.3077 37.5064 53.3214 37.9237L55.5893 37.3444C55.5344 37.0918 55.4108 36.8777 55.2186 36.7074V36.7047Z" fill="#BC64F4"/>
<path d="M61.2482 37.7977C60.9736 37.8526 60.7705 37.9349 60.6332 38.0448C60.4986 38.1518 60.441 38.3083 60.4602 38.5088C60.4822 38.7092 60.57 38.8575 60.732 38.9536C60.8913 39.0496 61.1384 39.0798 61.4706 39.0442C61.671 39.0222 61.8522 38.9865 62.0142 38.9316C62.1762 38.8767 62.2915 38.8163 62.3629 38.7531L62.2448 37.6L61.2482 37.7977Z" fill="#BC64F4"/>
<path d="M38.9447 38.3822C38.7525 38.2092 38.4862 38.1406 38.1485 38.1763C37.8108 38.212 37.5362 38.352 37.3331 38.6018C37.1271 38.8517 37.0338 39.1839 37.0475 39.6012L39.3154 39.0219C39.2605 38.7693 39.1369 38.5552 38.9447 38.3849V38.3822Z" fill="#BC64F4"/>
<path d="M23.2401 40.178C22.9985 39.9282 22.6882 39.8211 22.3148 39.8596C21.9414 39.898 21.6614 40.0655 21.4747 40.3592C21.288 40.6558 21.2193 41.0511 21.2715 41.5508C21.3237 42.056 21.4692 42.4322 21.708 42.6793C21.9469 42.9264 22.2572 43.0307 22.6361 42.9923C23.0177 42.9538 23.2977 42.7863 23.4817 42.4898C23.6657 42.1933 23.7288 41.7979 23.6794 41.301C23.6272 40.804 23.4817 40.4279 23.2373 40.178H23.2401Z" fill="#BC64F4"/>
<path d="M85.499 33.8216C85.5731 33.5498 85.3508 32.7344 85.4386 32.4324C85.7187 31.4769 85.3562 31.0788 84.7028 30.3238C84.4255 30.0025 85.6006 26.7133 83.8324 26.9247C83.3355 26.9851 81.625 26.9165 80.7821 26.9L79.5548 27.4217C79.0826 27.4656 78.992 27.0126 78.4511 27.0538C77.5396 27.1197 76.6637 28.4128 76.0075 27.548C75.8483 28.2865 75.5792 27.7649 75.0164 27.8116C73.6793 27.9241 73.3992 28.3744 72.5508 28.6517C72.2433 28.7533 69.7393 28.8823 69.2946 28.9455C66.862 29.2969 65.8132 29.9174 63.279 29.6758C62.8864 30.7603 62.2796 29.7115 61.1814 29.7994C60.7695 29.8323 60.6432 30.203 60.2808 30.2524C59.6493 30.3402 58.3616 29.8405 57.8564 30.0355L57.3622 31.4687C56.8598 31.4687 57.4446 29.9586 56.8241 30.2606C56.6731 30.3348 56.5715 30.645 56.2201 30.6917C55.8549 30.7384 55.4129 30.4199 55.0203 30.5324L54.7979 30.7356L54.9269 31.3479C54.3888 31.5648 54.5919 30.9937 54.3778 30.9553C53.8314 30.8564 52.2252 30.9964 51.5663 31.0486C49.0431 31.2518 49.9958 31.2655 47.4369 31.6883C46.3415 31.8695 41.0425 31.7872 40.9958 33.473L40.5867 33.3384L40.573 32.8717C39.6614 33.3055 38.8735 32.8744 38.0415 32.9403C36.0455 33.0996 34.9033 33.6542 32.9375 33.926C31.4686 34.1292 28.1163 34.1127 26.7627 34.4449C26.4277 34.5273 24.7282 35.2521 24.8325 35.6694L24.2697 34.8622C23.63 35.0023 22.6718 34.5712 22.4933 35.3427C22.238 34.6371 20.2172 35.2164 20.165 35.5294L19.0586 35.447C18.1058 35.3564 18.1745 36.3201 17.252 36.5453C15.7831 36.9406 15.6376 36.9708 14.1961 37.034C14.1412 37.2124 13.0842 38.0169 13.0732 38.2146C13.0622 38.4123 12.0189 38.9751 12.0354 39.1865C12.0491 39.3842 11.5384 39.6341 11.5604 39.8427C11.5961 40.1365 11.0744 40.2244 11.0936 40.5236C11.1266 41.0233 10.6324 41.8937 10.6488 42.3577C10.6598 42.646 9.60002 42.9535 9.611 43.2061C9.63022 43.6399 9.11679 44.0517 9.15523 44.307C9.2074 44.6448 8.99599 45.0072 9.0509 45.3449C8.79281 45.559 8.07896 46.2015 8.25742 46.4706C8.50727 46.8522 9.46823 46.6161 9.69611 47.3354C10.0585 47.4013 10.5445 47.3519 11.0222 47.426L12.4335 48.2387C12.4335 48.2387 12.439 48.2415 12.4444 48.2442V51.646C12.4444 52.1759 12.8755 52.607 13.4054 52.607C13.9353 52.607 14.3664 52.1759 14.3664 51.646V48.052L15.0582 48.0932L15.2779 48.1069C15.3685 48.2552 15.4509 48.3678 15.5277 48.4584V56.0389C15.5277 56.5688 15.9588 56.9999 16.4887 56.9999C17.0186 56.9999 17.4496 56.5688 17.4496 56.0389V48.3678L17.9439 48.3046L18.309 47.5853L18.493 47.7033L19.0009 47.5441C19.0146 47.5194 19.0339 47.5111 19.0558 47.5276L19.2013 47.4809C19.1656 47.5441 19.1382 47.5853 19.1135 47.621C19.1245 47.6512 19.1382 47.6896 19.1519 47.739C19.723 47.8186 20.2694 47.8022 20.6565 47.319C21.093 46.7753 20.8514 46.5557 21.5708 46.6133L21.8426 46.844C22.076 46.3058 23.4158 46.1905 23.2785 46.8083L22.9765 47.4205C24.3109 47.7802 24.2889 47.7555 24.1599 46.358L25.7962 46.9126L25.9555 46.5694C25.9417 46.8577 27.4436 47.2613 27.5342 47.2613C27.9625 47.2668 28.2371 46.7671 28.5775 46.6655C29.5549 46.369 31.0238 46.4898 32.0534 45.883L32.1934 46.52L33.7118 46.5365C33.72 47.4617 35.4113 47.6704 35.5705 46.8302C36.2542 46.4102 37.1382 47.2613 37.5171 47.3052C37.8905 47.3492 37.9921 46.7369 38.4314 46.7259C38.7664 46.7177 39.321 47.1075 39.7356 47.1789C41.0754 47.4068 42.7749 46.7204 42.6129 45.139L43.3817 44.8754L43.0358 46.7314C44.296 46.0807 45.4189 46.7781 46.3497 45.3943L46.6407 45.3778L47.0663 45.9764L47.3354 44.7381L47.5495 45.1444L48.2441 44.7052L48.365 45.7402C48.5681 46.023 49.0706 45.8363 49.3561 45.905C49.5675 45.9571 49.444 46.3717 49.8036 46.3003C50.9321 46.0697 50.7097 44.8287 50.9897 44.8205L51.4153 45.6167C51.9095 45.5892 52.7963 44.8452 53.0489 44.793C53.2686 44.7491 55.1356 45.1692 55.8577 45.0538C56.3162 44.9797 56.4507 44.4965 56.6566 44.4718C58.584 44.2494 60.948 44.6475 63.0264 43.8842C63.4767 43.7195 63.7924 43.1511 64.4266 43.3269L64.4486 43.9391C64.7918 44.049 64.9016 43.6344 65.1377 43.5959C66.4666 43.3845 68.1414 43.3763 69.6405 43.2308C70.9007 43.11 72.9078 43.4641 73.4239 42.1929L73.7561 42.7723C73.8852 42.8821 76.0514 42.5499 76.4578 42.4812C76.7845 42.4263 77.0371 42.1765 77.3089 42.1298C78.6378 41.8964 80.7189 42.2067 81.4905 40.6829C81.8748 41.7729 82.4322 41.6356 82.6381 41.6026L83.2119 40.6225L84.6534 40.7378C85.2849 41.2018 85.2354 38.8735 85.3096 38.4452C85.3425 38.264 85.7187 36.9571 85.7763 36.0813C85.8065 35.6118 85.4002 34.206 85.5045 33.8189L85.499 33.8216ZM19.3386 40.5785C19.2864 40.9657 19.2096 41.383 19.1052 41.8305C19.0009 42.2781 18.8774 42.7311 18.7373 43.1896C18.5973 43.6481 18.449 44.0517 18.2953 44.4031C18.0015 45.0758 17.7242 45.5865 17.4606 45.9324C17.1998 46.2784 16.9252 46.4651 16.6424 46.4925C16.4201 46.5145 16.2361 46.4706 16.0878 46.3552C15.9396 46.2399 15.838 46.0889 15.7831 45.8995C15.8847 45.7924 15.989 45.6661 16.1016 45.5261C16.2141 45.3861 16.324 45.2351 16.4338 45.0786C16.5436 44.9193 16.6452 44.7601 16.7413 44.5953C16.8374 44.4306 16.917 44.2741 16.9856 44.1203C16.9198 44.1066 16.8566 44.0874 16.7962 44.0599C16.7331 44.0352 16.6699 43.994 16.604 43.9391C16.5381 43.8842 16.4695 43.8101 16.3926 43.7195C16.3157 43.6289 16.2361 43.5108 16.151 43.3653C15.9506 43.0358 15.7035 42.5911 15.4152 42.0255C15.1269 41.4599 14.8249 40.7707 14.5091 39.958C14.5695 39.8674 14.6601 39.7878 14.7782 39.7164C14.8963 39.645 15.028 39.6011 15.1736 39.5874C15.352 39.5682 15.5058 39.5956 15.6266 39.667C15.7501 39.7384 15.8572 39.8784 15.9478 40.0843C16.3816 41.0947 16.8593 42.1161 17.3865 43.1457L17.4277 43.1402C17.4936 42.9013 17.5622 42.6322 17.6336 42.333C17.705 42.031 17.7709 41.718 17.8313 41.3912C17.8917 41.0645 17.9466 40.7323 17.996 40.4001C18.0454 40.0651 18.0866 39.7439 18.1168 39.4336C18.1964 39.3842 18.2816 39.3403 18.3722 39.3018C18.4628 39.2634 18.5589 39.2414 18.6632 39.2305C18.8417 39.2112 19.0037 39.2359 19.1437 39.3073C19.2837 39.376 19.3633 39.505 19.3825 39.6917C19.4045 39.9004 19.388 40.1969 19.3386 40.5813V40.5785ZM24.9506 42.2671C24.8627 42.602 24.72 42.8931 24.5223 43.1457C24.3246 43.3955 24.0747 43.5987 23.7782 43.7524C23.479 43.9062 23.1358 44.0023 22.7486 44.0407C22.3615 44.0819 22.0046 44.0544 21.6806 43.9666C21.3566 43.8787 21.0711 43.7332 20.8267 43.53C20.5824 43.3296 20.3819 43.0715 20.2282 42.764C20.0744 42.4538 19.9756 42.0968 19.9344 41.6878C19.8932 41.2869 19.9152 40.919 20.003 40.584C20.0909 40.2491 20.2364 39.958 20.4368 39.7109C20.6373 39.4638 20.8899 39.2634 21.1864 39.1096C21.4857 38.9559 21.8261 38.8598 22.205 38.8214C22.5866 38.7829 22.9381 38.8076 23.2621 38.8955C23.586 38.9861 23.8716 39.1316 24.1214 39.3375C24.3685 39.5434 24.5717 39.7988 24.7255 40.109C24.8792 40.4193 24.978 40.7707 25.0165 41.1661C25.0577 41.5669 25.0357 41.9349 24.9478 42.2698L24.9506 42.2671ZM30.4555 42.5169C30.4116 42.6295 30.321 42.7366 30.1837 42.8327C29.997 42.9782 29.7526 43.1072 29.4534 43.2225C29.1541 43.3378 28.8081 43.4147 28.4128 43.4559C28.0531 43.4943 27.7236 43.4861 27.4244 43.4367C27.1251 43.3873 26.8643 43.2912 26.6391 43.1457C26.414 43.0001 26.2328 42.8052 26.0955 42.5609C25.9582 42.3165 25.8704 42.0172 25.8347 41.6658L25.5244 38.6456C25.5766 38.6182 25.6562 38.5907 25.7633 38.5633C25.8676 38.5358 25.9884 38.5139 26.1175 38.5001C26.3591 38.4754 26.543 38.5001 26.6693 38.5743C26.7956 38.6484 26.8725 38.8021 26.8945 39.0383L27.1498 41.5093C27.1882 41.869 27.3063 42.1188 27.504 42.2533C27.7044 42.3906 27.9735 42.44 28.3112 42.4071C28.5253 42.3851 28.7038 42.3467 28.8493 42.289C28.9948 42.2314 29.1019 42.1765 29.1733 42.1188L28.7807 38.3107C28.8328 38.2832 28.9125 38.2558 29.0196 38.2283C29.1239 38.2009 29.2392 38.1789 29.3655 38.1652C29.6153 38.1405 29.7993 38.1652 29.9228 38.2393C30.0464 38.3134 30.1205 38.4699 30.1425 38.7033L30.4939 42.1078C30.5104 42.2671 30.4939 42.4016 30.4527 42.5169H30.4555ZM31.9848 37.2838C31.9738 37.4486 31.9573 37.616 31.9299 37.7835C31.9052 37.951 31.8722 38.1103 31.831 38.2613C31.7898 38.4123 31.7514 38.5358 31.713 38.6292C31.6169 38.8488 31.4521 38.9696 31.216 38.9943C31.0293 39.0136 30.8509 38.9861 30.6834 38.912C30.6861 38.7445 30.6916 38.5605 30.6944 38.3601C30.6971 38.1597 30.6998 37.9565 30.6998 37.7506C30.6998 37.5447 30.6998 37.3442 30.6944 37.1493C30.6916 36.9544 30.6861 36.7732 30.6751 36.6057C30.7548 36.5563 30.8454 36.5096 30.9497 36.4684C31.054 36.4272 31.1639 36.3998 31.2819 36.386C31.4549 36.3668 31.6086 36.3915 31.7459 36.4602C31.8832 36.5261 31.9601 36.6606 31.982 36.861C31.993 36.9791 31.9958 37.1218 31.982 37.2866L31.9848 37.2838ZM35.5074 38.3464C35.4854 38.437 35.4607 38.5111 35.4305 38.5688C35.2685 38.5495 35.0681 38.5523 34.8347 38.577C34.5931 38.6017 34.368 38.6539 34.1593 38.7308C33.9506 38.8076 33.7749 38.8955 33.6294 38.9943L34.011 42.7091C33.9506 42.7283 33.8683 42.7558 33.7667 42.786C33.6651 42.8162 33.547 42.8409 33.418 42.8519C33.1764 42.8766 32.9924 42.8519 32.8634 42.7723C32.7371 42.6954 32.6602 42.5416 32.6382 42.3137L32.3005 39.0245C32.2813 38.8461 32.3088 38.6896 32.3774 38.555C32.4488 38.4232 32.5586 38.2997 32.7069 38.1844C32.9073 38.0306 33.1599 37.8961 33.4674 37.7808C33.7722 37.6655 34.1099 37.5886 34.4778 37.5502C35.134 37.4815 35.4854 37.6517 35.5266 38.0608C35.5376 38.1569 35.5293 38.2503 35.5074 38.3409V38.3464ZM40.4879 41.6932C40.4055 41.8113 40.2874 41.9156 40.1309 42.009C39.9772 42.1023 39.7905 42.1792 39.5736 42.2451C39.3567 42.3083 39.1206 42.3549 38.8625 42.3824C38.4534 42.4236 38.0772 42.4071 37.7286 42.3302C37.3826 42.2533 37.0778 42.1161 36.8143 41.9156C36.5534 41.7152 36.3365 41.4571 36.1663 41.1386C35.9961 40.8201 35.889 40.4413 35.8451 39.9965C35.8011 39.5682 35.8286 39.1865 35.9274 38.8543C36.0263 38.5221 36.1773 38.2366 36.3805 38.0004C36.5836 37.7616 36.828 37.5776 37.1135 37.4431C37.3991 37.3085 37.7093 37.2234 38.0415 37.1905C38.3793 37.1548 38.6977 37.1768 38.9915 37.2564C39.2853 37.336 39.5434 37.4568 39.763 37.627C39.9827 37.7973 40.1639 38.0087 40.3067 38.264C40.4494 38.5193 40.5345 38.8021 40.5675 39.1124C40.5867 39.3073 40.551 39.4556 40.4632 39.5627C40.3726 39.6697 40.238 39.7466 40.0623 39.7933L37.2206 40.5044C37.3552 40.8476 37.5611 41.0837 37.8384 41.2183C38.1184 41.35 38.4506 41.3967 38.8378 41.3555C39.1288 41.3253 39.3924 41.254 39.6285 41.1441C39.8646 41.0316 40.0541 40.919 40.1968 40.8064C40.2984 40.8531 40.3863 40.919 40.4577 41.0096C40.529 41.1002 40.573 41.2018 40.584 41.3116C40.5977 41.4489 40.5647 41.5779 40.4824 41.6932H40.4879ZM46.0257 41.4269C45.8527 41.5807 45.559 41.6795 45.1444 41.7234C44.598 41.7811 44.1532 41.7015 43.8155 41.4873C43.4751 41.2759 43.2746 40.8833 43.217 40.3177L42.7255 35.5541C42.7804 35.5349 42.8601 35.5102 42.9644 35.4772C43.0687 35.4443 43.184 35.4223 43.3076 35.4113C43.5492 35.3866 43.7331 35.4113 43.8567 35.491C43.9803 35.5706 44.0544 35.7216 44.0763 35.9495L44.1642 36.8116L45.6908 36.6551C45.7319 36.7073 45.7704 36.7759 45.8061 36.8638C45.8418 36.9516 45.8665 37.045 45.8774 37.1493C45.8967 37.3278 45.8692 37.465 45.7923 37.5556C45.7182 37.6462 45.6111 37.7012 45.4739 37.7149L44.2713 37.8384L44.5047 40.1008C44.5266 40.3232 44.6117 40.4742 44.7573 40.5566C44.9028 40.6389 45.095 40.6691 45.3366 40.6444C45.4546 40.6334 45.5727 40.606 45.6908 40.5676C45.8088 40.5264 45.9131 40.4824 46.0065 40.4303C46.0669 40.4797 46.1218 40.5428 46.1685 40.617C46.2152 40.6939 46.2426 40.7817 46.2536 40.886C46.2756 41.0947 46.1987 41.2732 46.0257 41.4297V41.4269ZM51.3741 40.9766C51.2698 41.0068 51.1545 41.0316 51.0309 41.0425C50.7811 41.0673 50.5944 41.0425 50.4681 40.9657C50.3418 40.8888 50.2649 40.735 50.2429 40.5071L49.9849 38.0059C49.9492 37.66 49.8338 37.4184 49.6389 37.2811C49.4412 37.1438 49.1996 37.0889 48.9086 37.1191C48.7219 37.1383 48.5517 37.185 48.3979 37.2619C48.2441 37.336 48.1069 37.4239 47.9833 37.52L48.365 41.2347C48.3046 41.254 48.2222 41.2814 48.1206 41.3116C48.019 41.3418 47.901 41.3638 47.7719 41.3775C47.5303 41.4022 47.3463 41.3775 47.2173 41.2979C47.091 41.221 47.0141 41.0673 46.9922 40.8394L46.3524 34.6343C46.4046 34.6069 46.4842 34.5794 46.5913 34.552C46.6956 34.5245 46.8164 34.5026 46.9455 34.4888C47.1871 34.4641 47.3711 34.4888 47.5001 34.5684C47.6264 34.6453 47.7033 34.7991 47.7252 35.027L47.8735 36.4602C48.019 36.3668 48.1865 36.2844 48.3759 36.2076C48.5681 36.1307 48.785 36.0813 49.0266 36.0566C49.6554 35.9907 50.1743 36.1032 50.5806 36.3888C50.987 36.6743 51.2259 37.1466 51.2917 37.8055L51.6102 40.897C51.5553 40.9162 51.4757 40.9437 51.3714 40.9739L51.3741 40.9766ZM56.761 40.0184C56.6786 40.1365 56.5605 40.2408 56.4068 40.3342C56.253 40.4275 56.0663 40.5072 55.8494 40.5703C55.6325 40.6334 55.3964 40.6801 55.1383 40.7076C54.7292 40.7488 54.3531 40.7323 54.0044 40.6554C53.6584 40.5785 53.3537 40.4413 53.0901 40.2408C52.8293 40.0404 52.6124 39.7823 52.4449 39.4638C52.2747 39.1453 52.1676 38.7664 52.1237 38.3217C52.0797 37.8934 52.1072 37.5117 52.206 37.1795C52.3049 36.8473 52.4559 36.5617 52.659 36.3256C52.8622 36.0868 53.1066 35.9028 53.3921 35.7683C53.6777 35.6337 53.9879 35.5486 54.3201 35.5157C54.6578 35.48 54.9763 35.5019 55.2701 35.5816C55.5639 35.6584 55.822 35.782 56.0416 35.9522C56.2613 36.1224 56.4425 36.3339 56.5852 36.5892C56.728 36.8445 56.8131 37.1273 56.8461 37.4376C56.8653 37.6325 56.8296 37.7808 56.7417 37.8879C56.6511 37.9949 56.5166 38.0718 56.3409 38.1185L53.4992 38.8296C53.631 39.1728 53.8369 39.4089 54.117 39.5407C54.397 39.6725 54.7292 39.7192 55.1164 39.678C55.4074 39.6478 55.671 39.5764 55.9071 39.4666C56.1432 39.354 56.3326 39.2414 56.4754 39.1289C56.577 39.1755 56.6649 39.2414 56.739 39.332C56.8104 39.4226 56.8543 39.5242 56.8653 39.6341C56.879 39.7713 56.8461 39.9004 56.7637 40.0184H56.761ZM63.5728 39.1838C63.4986 39.2881 63.4053 39.387 63.2872 39.4748C63.106 39.6121 62.8699 39.7302 62.5789 39.8317C62.2878 39.9306 61.9529 40.002 61.5712 40.0404C60.8793 40.1118 60.322 40.0349 59.8964 39.8098C59.4708 39.5846 59.232 39.2057 59.1771 38.6731C59.1304 38.2091 59.2402 37.8412 59.5093 37.5639C59.7784 37.2893 60.1902 37.0944 60.7448 36.9791L62.1505 36.688L62.1313 36.5013C62.1039 36.2378 61.9886 36.0538 61.7854 35.9495C61.5822 35.8451 61.3076 35.8095 60.9617 35.8451C60.6926 35.8726 60.4318 35.933 60.182 36.0264C59.9321 36.1197 59.7125 36.224 59.523 36.3421C59.4406 36.2954 59.3693 36.2268 59.3089 36.1389C59.2485 36.0511 59.21 35.9522 59.199 35.8397C59.1853 35.6996 59.2045 35.5843 59.2622 35.491C59.3198 35.3976 59.4159 35.3098 59.556 35.2246C59.7482 35.1203 59.9705 35.0352 60.2204 34.9666C60.473 34.8979 60.7283 34.8512 60.9919 34.8238C61.6701 34.7551 62.2274 34.843 62.6612 35.0929C63.095 35.3427 63.3449 35.771 63.408 36.3805L63.6551 38.7774C63.6716 38.9449 63.6441 39.0794 63.57 39.1838H63.5728ZM67.5346 35.0489C67.5127 35.1395 67.488 35.2137 67.4578 35.2713C67.2958 35.2521 67.0953 35.2548 66.862 35.2796C66.6204 35.3043 66.3952 35.3564 66.1866 35.4333C65.9779 35.5102 65.8022 35.598 65.6567 35.6969L66.0383 39.4117C65.9779 39.4309 65.8955 39.4583 65.7939 39.4885C65.6924 39.5187 65.577 39.5435 65.4452 39.5544C65.2036 39.5791 65.0197 39.5544 64.8906 39.4748C64.7616 39.3952 64.6875 39.2442 64.6655 39.0163L64.3278 35.7271C64.3086 35.5486 64.336 35.3921 64.4047 35.2576C64.4761 35.1258 64.5831 35.0022 64.7341 34.8869C64.9346 34.7332 65.1872 34.5986 65.4947 34.4833C65.7994 34.368 66.1371 34.2911 66.505 34.2527C67.1612 34.1841 67.5127 34.3543 67.5539 34.7634C67.5648 34.8595 67.5566 34.9528 67.5346 35.0434V35.0489ZM71.2137 38.8323C71.0408 38.9861 70.747 39.0849 70.3324 39.1289C69.786 39.1838 69.3412 39.1069 69.0008 38.8927C68.6603 38.6786 68.4627 38.2887 68.4022 37.7231L67.9108 32.9595C67.9657 32.9403 68.0453 32.9156 68.1497 32.8827C68.254 32.8497 68.3693 32.8277 68.4929 32.8168C68.7345 32.7921 68.9184 32.8168 69.042 32.8964C69.1655 32.976 69.2396 33.127 69.2616 33.3549L69.3495 34.217L70.876 34.0605C70.9172 34.1127 70.9556 34.1813 70.9913 34.2692C71.027 34.357 71.0517 34.4504 71.0627 34.5547C71.0819 34.7332 71.0545 34.8705 70.9776 34.9611C70.9035 35.0517 70.7964 35.1066 70.6591 35.1203L69.4566 35.2439L69.6899 37.5062C69.7119 37.7286 69.797 37.8796 69.9425 37.962C70.088 38.0444 70.2802 38.0746 70.5218 38.0498C70.6399 38.0389 70.758 38.0114 70.876 37.9702C70.9941 37.929 71.0984 37.8851 71.1918 37.833C71.2522 37.8824 71.3071 37.9455 71.3537 38.0196C71.4004 38.0965 71.4279 38.1844 71.4389 38.2887C71.4608 38.4974 71.384 38.6758 71.211 38.8323H71.2137ZM71.5048 32.4104C71.4855 32.21 71.5377 32.0315 71.664 31.875C71.7903 31.7185 71.966 31.6279 72.1857 31.606C72.4081 31.584 72.5948 31.6362 72.7485 31.7625C72.9023 31.8888 72.9874 32.0535 73.0093 32.2539C73.0313 32.4626 72.9791 32.6438 72.8556 32.8003C72.732 32.9568 72.5591 33.0446 72.3367 33.0694C72.1143 33.0913 71.9276 33.0392 71.7711 32.9129C71.6146 32.7866 71.5267 32.6191 71.5048 32.4104ZM73.3361 38.7143C73.2317 38.7472 73.1164 38.7692 72.9929 38.7802C72.743 38.8049 72.5563 38.7802 72.4355 38.7006C72.312 38.6237 72.2378 38.4699 72.2159 38.242L71.7683 33.904C71.8232 33.8848 71.9029 33.8601 72.0072 33.8271C72.1115 33.7942 72.2268 33.7722 72.3504 33.7612C72.6002 33.7365 72.7869 33.7612 72.9105 33.8409C73.034 33.9205 73.1082 34.0715 73.1301 34.2994L73.5777 38.6374C73.5228 38.6566 73.4431 38.6841 73.3388 38.7143H73.3361ZM77.8855 37.9455C77.5533 38.2558 77.0426 38.448 76.3507 38.5193C76.0679 38.5495 75.8071 38.555 75.571 38.5358C75.3349 38.5193 75.1289 38.4782 74.9505 38.415C74.772 38.3519 74.632 38.2695 74.5249 38.1652C74.4206 38.0608 74.3602 37.94 74.3464 37.8C74.3327 37.6682 74.3492 37.5529 74.3986 37.4486C74.448 37.3442 74.5167 37.2591 74.6073 37.185C74.8132 37.2893 75.0493 37.3772 75.3101 37.4486C75.5737 37.52 75.8702 37.5364 76.2025 37.5035C76.4853 37.4733 76.6967 37.4046 76.8312 37.2976C76.9657 37.1905 77.0261 37.0505 77.0097 36.8857C76.9795 36.6029 76.7543 36.4354 76.3288 36.3888L75.733 36.3146C75.2086 36.2487 74.8132 36.1115 74.5414 35.9028C74.2723 35.6941 74.1158 35.3894 74.0746 34.9968C74.0279 34.5465 74.1707 34.1648 74.5002 33.8464C74.8324 33.5279 75.3211 33.3384 75.9718 33.2698C76.2217 33.2451 76.4523 33.2396 76.6692 33.2561C76.8834 33.2725 77.0728 33.3082 77.2375 33.3659C77.4023 33.4235 77.5313 33.4977 77.6274 33.5883C77.7235 33.6789 77.7784 33.7914 77.7922 33.9232C77.8059 34.0468 77.7894 34.1594 77.7427 34.2582C77.6961 34.357 77.6384 34.4394 77.5698 34.5026C77.5039 34.4669 77.4188 34.4339 77.3144 34.4037C77.2101 34.3735 77.0948 34.3461 76.9712 34.3241C76.8477 34.3021 76.7159 34.2857 76.5786 34.2747C76.4413 34.2637 76.3068 34.2664 76.175 34.2802C75.9059 34.3076 75.6973 34.3735 75.5545 34.4751C75.4117 34.5767 75.3486 34.7085 75.3651 34.8677C75.376 34.9858 75.4309 35.0791 75.5243 35.145C75.6176 35.2109 75.7741 35.2603 75.9938 35.285L76.5155 35.3564C77.103 35.4278 77.5368 35.5788 77.8196 35.804C78.1024 36.0291 78.2644 36.3476 78.3056 36.7567C78.355 37.2399 78.215 37.638 77.8828 37.9483L77.8855 37.9455ZM81.8721 37.7341C81.6991 37.8879 81.4053 37.9867 80.9908 38.0306C80.4444 38.0855 79.9996 38.0087 79.6619 37.7945C79.3214 37.5804 79.1238 37.1905 79.0634 36.6249L78.5719 31.8613C78.6268 31.8421 78.7064 31.8174 78.8108 31.7844C78.9151 31.7515 79.0304 31.7295 79.1567 31.7185C79.3983 31.6938 79.5823 31.7185 79.7058 31.7982C79.8294 31.8778 79.9035 32.0288 79.9255 32.2567L80.0133 33.1188L81.5399 32.9623C81.5811 33.0144 81.6195 33.0831 81.6552 33.1709C81.6909 33.2588 81.7156 33.3522 81.7266 33.4565C81.7458 33.6349 81.7156 33.7722 81.6415 33.8628C81.5673 33.9534 81.4603 34.0083 81.323 34.0221L80.1204 34.1456L80.3538 36.408C80.3757 36.6304 80.4609 36.7814 80.6064 36.8638C80.7519 36.9461 80.9441 36.9763 81.1884 36.9516C81.3065 36.9406 81.4246 36.9132 81.5426 36.872C81.6607 36.8308 81.765 36.7869 81.8584 36.7347C81.9188 36.7841 81.9737 36.8473 82.0204 36.9242C82.067 37.001 82.0945 37.0889 82.1055 37.1932C82.1274 37.4019 82.0506 37.5804 81.8776 37.7369L81.8721 37.7341Z" fill="#BC64F4"/>
</svg>
