<svg width="110" height="32" viewBox="0 0 110 32" fill="none" xmlns="http://www.w3.org/2000/svg">
<rect width="110" height="32" rx="16" fill="#FF48A4"/>
<path d="M45.2256 15.3232V18.0918C45.1214 18.2253 44.957 18.3701 44.7324 18.5264C44.5111 18.6826 44.2214 18.8177 43.8633 18.9316C43.5052 19.0423 43.0658 19.0977 42.5449 19.0977C42.0924 19.0977 41.679 19.0228 41.3047 18.873C40.9303 18.7201 40.6081 18.4971 40.3379 18.2041C40.0677 17.9111 39.8594 17.5531 39.7129 17.1299C39.5664 16.7067 39.4932 16.2233 39.4932 15.6797V15.2109C39.4932 14.6673 39.5615 14.1839 39.6982 13.7607C39.8382 13.3376 40.0368 12.9795 40.2939 12.6865C40.5544 12.3936 40.8652 12.1706 41.2266 12.0176C41.5911 11.8646 41.998 11.7881 42.4473 11.7881C43.0495 11.7881 43.5443 11.8874 43.9316 12.0859C44.3223 12.2845 44.6217 12.5579 44.8301 12.9062C45.0384 13.2513 45.1686 13.6484 45.2207 14.0977H43.9121C43.8763 13.8503 43.8047 13.6338 43.6973 13.4482C43.5898 13.2594 43.4368 13.113 43.2383 13.0088C43.043 12.9014 42.7891 12.8477 42.4766 12.8477C42.2129 12.8477 41.9801 12.8997 41.7783 13.0039C41.5765 13.1081 41.4072 13.2594 41.2705 13.458C41.1338 13.6566 41.0296 13.9023 40.958 14.1953C40.8896 14.4883 40.8555 14.8236 40.8555 15.2012V15.6797C40.8555 16.0605 40.8945 16.3991 40.9727 16.6953C41.0508 16.9883 41.1631 17.2357 41.3096 17.4375C41.4593 17.6361 41.6432 17.7874 41.8613 17.8916C42.0827 17.9925 42.3333 18.043 42.6133 18.043C42.8672 18.043 43.0771 18.0218 43.2432 17.9795C43.4124 17.9339 43.5475 17.8802 43.6484 17.8184C43.7493 17.7565 43.8275 17.6963 43.8828 17.6377V16.3047H42.4717V15.3232H45.2256ZM46.168 16.4121V16.3096C46.168 15.9222 46.2233 15.5658 46.334 15.2402C46.4447 14.9115 46.6058 14.6266 46.8174 14.3857C47.029 14.1449 47.2878 13.9577 47.5938 13.8242C47.8997 13.6875 48.248 13.6191 48.6387 13.6191C49.0358 13.6191 49.3874 13.6875 49.6934 13.8242C50.0026 13.9577 50.263 14.1449 50.4746 14.3857C50.6862 14.6266 50.8473 14.9115 50.958 15.2402C51.0687 15.5658 51.124 15.9222 51.124 16.3096V16.4121C51.124 16.7962 51.0687 17.1527 50.958 17.4814C50.8473 17.807 50.6862 18.0918 50.4746 18.3359C50.263 18.5768 50.0042 18.764 49.6982 18.8975C49.3923 19.0309 49.0423 19.0977 48.6484 19.0977C48.2578 19.0977 47.9079 19.0309 47.5986 18.8975C47.2894 18.764 47.029 18.5768 46.8174 18.3359C46.6058 18.0918 46.4447 17.807 46.334 17.4814C46.2233 17.1527 46.168 16.7962 46.168 16.4121ZM47.457 16.3096V16.4121C47.457 16.6432 47.4798 16.8597 47.5254 17.0615C47.571 17.2633 47.641 17.4408 47.7354 17.5938C47.8298 17.7467 47.9518 17.8672 48.1016 17.9551C48.2546 18.0397 48.4368 18.082 48.6484 18.082C48.8568 18.082 49.0358 18.0397 49.1855 17.9551C49.3353 17.8672 49.4574 17.7467 49.5518 17.5938C49.6494 17.4408 49.721 17.2633 49.7666 17.0615C49.8122 16.8597 49.835 16.6432 49.835 16.4121V16.3096C49.835 16.0817 49.8122 15.8685 49.7666 15.6699C49.721 15.4681 49.6494 15.2907 49.5518 15.1377C49.4574 14.9814 49.3337 14.8594 49.1807 14.7715C49.0309 14.6803 48.8503 14.6348 48.6387 14.6348C48.4303 14.6348 48.2513 14.6803 48.1016 14.7715C47.9518 14.8594 47.8298 14.9814 47.7354 15.1377C47.641 15.2907 47.571 15.4681 47.5254 15.6699C47.4798 15.8685 47.457 16.0817 47.457 16.3096ZM46.8223 12.3203C46.8223 12.1543 46.8825 12.016 47.0029 11.9053C47.1234 11.7913 47.2764 11.7344 47.4619 11.7344C47.6507 11.7344 47.8037 11.7913 47.9209 11.9053C48.0413 12.016 48.1016 12.1543 48.1016 12.3203C48.1016 12.4831 48.0413 12.6214 47.9209 12.7354C47.8037 12.846 47.6507 12.9014 47.4619 12.9014C47.2764 12.9014 47.1234 12.846 47.0029 12.7354C46.8825 12.6214 46.8223 12.4831 46.8223 12.3203ZM49.1514 12.3252C49.1514 12.1592 49.21 12.0208 49.3271 11.9102C49.4476 11.7962 49.6022 11.7393 49.791 11.7393C49.9766 11.7393 50.1296 11.7962 50.25 11.9102C50.3704 12.0208 50.4307 12.1592 50.4307 12.3252C50.4307 12.488 50.3704 12.6263 50.25 12.7402C50.1296 12.8509 49.9766 12.9062 49.791 12.9062C49.6022 12.9062 49.4476 12.8509 49.3271 12.7402C49.21 12.6263 49.1514 12.488 49.1514 12.3252ZM53.3506 14.7959V19H52.0615V13.7168H53.2822L53.3506 14.7959ZM54.957 13.6826L54.9375 14.8838C54.8659 14.8708 54.7845 14.861 54.6934 14.8545C54.6055 14.848 54.5225 14.8447 54.4443 14.8447C54.2458 14.8447 54.0716 14.8724 53.9219 14.9277C53.7721 14.9798 53.6468 15.0563 53.5459 15.1572C53.4482 15.2581 53.3734 15.3818 53.3213 15.5283C53.2692 15.6715 53.2399 15.8343 53.2334 16.0166L52.9551 15.9824C52.9551 15.6471 52.9893 15.3363 53.0576 15.0498C53.126 14.7633 53.2253 14.5127 53.3555 14.2979C53.4857 14.083 53.6484 13.917 53.8438 13.7998C54.0423 13.6794 54.2702 13.6191 54.5273 13.6191C54.599 13.6191 54.6755 13.6257 54.7568 13.6387C54.8415 13.6484 54.9082 13.6631 54.957 13.6826ZM57.9258 16.4121V16.3096C57.9258 15.9222 57.9811 15.5658 58.0918 15.2402C58.2025 14.9115 58.3636 14.6266 58.5752 14.3857C58.7868 14.1449 59.0456 13.9577 59.3516 13.8242C59.6576 13.6875 60.0059 13.6191 60.3965 13.6191C60.7936 13.6191 61.1452 13.6875 61.4512 13.8242C61.7604 13.9577 62.0208 14.1449 62.2324 14.3857C62.444 14.6266 62.6051 14.9115 62.7158 15.2402C62.8265 15.5658 62.8818 15.9222 62.8818 16.3096V16.4121C62.8818 16.7962 62.8265 17.1527 62.7158 17.4814C62.6051 17.807 62.444 18.0918 62.2324 18.3359C62.0208 18.5768 61.762 18.764 61.4561 18.8975C61.1501 19.0309 60.8001 19.0977 60.4062 19.0977C60.0156 19.0977 59.6657 19.0309 59.3564 18.8975C59.0472 18.764 58.7868 18.5768 58.5752 18.3359C58.3636 18.0918 58.2025 17.807 58.0918 17.4814C57.9811 17.1527 57.9258 16.7962 57.9258 16.4121ZM59.2148 16.3096V16.4121C59.2148 16.6432 59.2376 16.8597 59.2832 17.0615C59.3288 17.2633 59.3988 17.4408 59.4932 17.5938C59.5876 17.7467 59.7096 17.8672 59.8594 17.9551C60.0124 18.0397 60.1947 18.082 60.4062 18.082C60.6146 18.082 60.7936 18.0397 60.9434 17.9551C61.0931 17.8672 61.2152 17.7467 61.3096 17.5938C61.4072 17.4408 61.4788 17.2633 61.5244 17.0615C61.57 16.8597 61.5928 16.6432 61.5928 16.4121V16.3096C61.5928 16.0817 61.57 15.8685 61.5244 15.6699C61.4788 15.4681 61.4072 15.2907 61.3096 15.1377C61.2152 14.9814 61.0915 14.8594 60.9385 14.7715C60.7887 14.6803 60.6081 14.6348 60.3965 14.6348C60.1882 14.6348 60.0091 14.6803 59.8594 14.7715C59.7096 14.8594 59.5876 14.9814 59.4932 15.1377C59.3988 15.2907 59.3288 15.4681 59.2832 15.6699C59.2376 15.8685 59.2148 16.0817 59.2148 16.3096ZM65.1035 14.8008V19H63.8145V13.7168H65.0303L65.1035 14.8008ZM64.9131 16.168H64.5176C64.5176 15.8001 64.5615 15.4616 64.6494 15.1523C64.7406 14.8431 64.874 14.5745 65.0498 14.3467C65.2256 14.1156 65.4421 13.9365 65.6992 13.8096C65.9596 13.6826 66.2607 13.6191 66.6025 13.6191C66.8402 13.6191 67.0583 13.6549 67.2568 13.7266C67.4554 13.7949 67.6263 13.904 67.7695 14.0537C67.916 14.2002 68.0283 14.3923 68.1064 14.6299C68.1846 14.8643 68.2236 15.1458 68.2236 15.4746V19H66.9346V15.6064C66.9346 15.359 66.8988 15.1654 66.8271 15.0254C66.7588 14.8854 66.6595 14.7878 66.5293 14.7324C66.3991 14.6738 66.2428 14.6445 66.0605 14.6445C65.8587 14.6445 65.6846 14.6852 65.5381 14.7666C65.3949 14.8447 65.276 14.9538 65.1816 15.0938C65.0905 15.2337 65.0221 15.3949 64.9766 15.5771C64.9342 15.7594 64.9131 15.9564 64.9131 16.168ZM68.126 15.9287L67.5938 16.0264C67.597 15.6943 67.6426 15.3835 67.7305 15.0938C67.8184 14.8008 67.9469 14.5452 68.1162 14.3271C68.2887 14.1058 68.502 13.9333 68.7559 13.8096C69.013 13.6826 69.3092 13.6191 69.6445 13.6191C69.9049 13.6191 70.1393 13.6566 70.3477 13.7314C70.5592 13.8031 70.7399 13.9186 70.8896 14.0781C71.0394 14.2344 71.1533 14.4378 71.2314 14.6885C71.3128 14.9391 71.3535 15.2451 71.3535 15.6064V19H70.0547V15.6016C70.0547 15.3444 70.0189 15.1475 69.9473 15.0107C69.8789 14.874 69.7796 14.7796 69.6494 14.7275C69.5192 14.6722 69.3662 14.6445 69.1904 14.6445C69.0114 14.6445 68.8551 14.6787 68.7217 14.7471C68.5915 14.8122 68.4808 14.9033 68.3896 15.0205C68.3018 15.1377 68.235 15.2744 68.1895 15.4307C68.1471 15.5837 68.126 15.7497 68.126 15.9287Z" fill="white"/>
<g clip-path="url(#clip0_1147_2)">
<path d="M26.5492 15.7582V16C26.5492 20.1623 23.1623 23.5492 19 23.5492C14.8377 23.5492 11.4508 20.1623 11.4508 16C11.4508 11.8377 14.8377 8.45083 19 8.45083C21.0167 8.45083 22.9124 9.23589 24.3375 10.6625C24.6889 11.014 25.0048 11.4009 25.2837 11.8184H23.0462L23.0172 13.2499H26.3944C27.1134 13.2499 27.6969 12.6647 27.6969 11.9473V8.57496H26.2461V10.6658C25.9753 10.2966 25.6803 9.95325 25.3643 9.63568C23.6636 7.93659 21.4035 7 19 7C14.0365 7 10 11.0365 10 16C10 20.9635 14.0365 25 19 25C23.9635 25 28 20.9635 28 16V15.7582H26.5492Z" fill="white"/>
</g>
<defs>
<clipPath id="clip0_1147_2">
<rect width="18" height="18" fill="white" transform="translate(10 7)"/>
</clipPath>
</defs>
</svg>
