<svg width="121" height="46" viewBox="0 0 121 46" fill="none" xmlns="http://www.w3.org/2000/svg">
<rect width="121" height="32" rx="16" fill="#FF48A4"/>
<path d="M47.7739 15.3232V18.0918C47.6698 18.2253 47.5054 18.3701 47.2808 18.5264C47.0594 18.6826 46.7697 18.8177 46.4116 18.9316C46.0535 19.0423 45.6141 19.0977 45.0933 19.0977C44.6408 19.0977 44.2274 19.0228 43.853 18.873C43.4787 18.7201 43.1564 18.4971 42.8862 18.2041C42.616 17.9111 42.4077 17.5531 42.2612 17.1299C42.1147 16.7067 42.0415 16.2233 42.0415 15.6797V15.2109C42.0415 14.6673 42.1099 14.1839 42.2466 13.7607C42.3866 13.3376 42.5851 12.9795 42.8423 12.6865C43.1027 12.3936 43.4136 12.1706 43.7749 12.0176C44.1395 11.8646 44.5464 11.7881 44.9956 11.7881C45.5978 11.7881 46.0926 11.8874 46.48 12.0859C46.8706 12.2845 47.1701 12.5579 47.3784 12.9062C47.5868 13.2513 47.717 13.6484 47.769 14.0977H46.4604C46.4246 13.8503 46.353 13.6338 46.2456 13.4482C46.1382 13.2594 45.9852 13.113 45.7866 13.0088C45.5913 12.9014 45.3374 12.8477 45.0249 12.8477C44.7612 12.8477 44.5285 12.8997 44.3267 13.0039C44.1248 13.1081 43.9556 13.2594 43.8188 13.458C43.6821 13.6566 43.578 13.9023 43.5063 14.1953C43.438 14.4883 43.4038 14.8236 43.4038 15.2012V15.6797C43.4038 16.0605 43.4429 16.3991 43.521 16.6953C43.5991 16.9883 43.7114 17.2357 43.8579 17.4375C44.0076 17.6361 44.1916 17.7874 44.4097 17.8916C44.631 17.9925 44.8817 18.043 45.1616 18.043C45.4155 18.043 45.6255 18.0218 45.7915 17.9795C45.9608 17.9339 46.0959 17.8802 46.1968 17.8184C46.2977 17.7565 46.3758 17.6963 46.4312 17.6377V16.3047H45.02V15.3232H47.7739ZM48.7163 16.4121V16.3096C48.7163 15.9222 48.7716 15.5658 48.8823 15.2402C48.993 14.9115 49.1541 14.6266 49.3657 14.3857C49.5773 14.1449 49.8361 13.9577 50.1421 13.8242C50.4481 13.6875 50.7964 13.6191 51.187 13.6191C51.5841 13.6191 51.9357 13.6875 52.2417 13.8242C52.5509 13.9577 52.8114 14.1449 53.0229 14.3857C53.2345 14.6266 53.3957 14.9115 53.5063 15.2402C53.617 15.5658 53.6724 15.9222 53.6724 16.3096V16.4121C53.6724 16.7962 53.617 17.1527 53.5063 17.4814C53.3957 17.807 53.2345 18.0918 53.0229 18.3359C52.8114 18.5768 52.5526 18.764 52.2466 18.8975C51.9406 19.0309 51.5907 19.0977 51.1968 19.0977C50.8062 19.0977 50.4562 19.0309 50.147 18.8975C49.8377 18.764 49.5773 18.5768 49.3657 18.3359C49.1541 18.0918 48.993 17.807 48.8823 17.4814C48.7716 17.1527 48.7163 16.7962 48.7163 16.4121ZM50.0054 16.3096V16.4121C50.0054 16.6432 50.0282 16.8597 50.0737 17.0615C50.1193 17.2633 50.1893 17.4408 50.2837 17.5938C50.3781 17.7467 50.5002 17.8672 50.6499 17.9551C50.8029 18.0397 50.9852 18.082 51.1968 18.082C51.4051 18.082 51.5841 18.0397 51.7339 17.9551C51.8836 17.8672 52.0057 17.7467 52.1001 17.5938C52.1978 17.4408 52.2694 17.2633 52.3149 17.0615C52.3605 16.8597 52.3833 16.6432 52.3833 16.4121V16.3096C52.3833 16.0817 52.3605 15.8685 52.3149 15.6699C52.2694 15.4681 52.1978 15.2907 52.1001 15.1377C52.0057 14.9814 51.882 14.8594 51.729 14.7715C51.5793 14.6803 51.3986 14.6348 51.187 14.6348C50.9787 14.6348 50.7996 14.6803 50.6499 14.7715C50.5002 14.8594 50.3781 14.9814 50.2837 15.1377C50.1893 15.2907 50.1193 15.4681 50.0737 15.6699C50.0282 15.8685 50.0054 16.0817 50.0054 16.3096ZM49.3706 12.3203C49.3706 12.1543 49.4308 12.016 49.5513 11.9053C49.6717 11.7913 49.8247 11.7344 50.0103 11.7344C50.1991 11.7344 50.3521 11.7913 50.4692 11.9053C50.5897 12.016 50.6499 12.1543 50.6499 12.3203C50.6499 12.4831 50.5897 12.6214 50.4692 12.7354C50.3521 12.846 50.1991 12.9014 50.0103 12.9014C49.8247 12.9014 49.6717 12.846 49.5513 12.7354C49.4308 12.6214 49.3706 12.4831 49.3706 12.3203ZM51.6997 12.3252C51.6997 12.1592 51.7583 12.0208 51.8755 11.9102C51.9959 11.7962 52.1506 11.7393 52.3394 11.7393C52.5249 11.7393 52.6779 11.7962 52.7983 11.9102C52.9188 12.0208 52.979 12.1592 52.979 12.3252C52.979 12.488 52.9188 12.6263 52.7983 12.7402C52.6779 12.8509 52.5249 12.9062 52.3394 12.9062C52.1506 12.9062 51.9959 12.8509 51.8755 12.7402C51.7583 12.6263 51.6997 12.488 51.6997 12.3252ZM55.8989 14.7959V19H54.6099V13.7168H55.8306L55.8989 14.7959ZM57.5054 13.6826L57.4858 14.8838C57.4142 14.8708 57.3328 14.861 57.2417 14.8545C57.1538 14.848 57.0708 14.8447 56.9927 14.8447C56.7941 14.8447 56.62 14.8724 56.4702 14.9277C56.3205 14.9798 56.1951 15.0563 56.0942 15.1572C55.9966 15.2581 55.9217 15.3818 55.8696 15.5283C55.8175 15.6715 55.7882 15.8343 55.7817 16.0166L55.5034 15.9824C55.5034 15.6471 55.5376 15.3363 55.606 15.0498C55.6743 14.7633 55.7736 14.5127 55.9038 14.2979C56.034 14.083 56.1968 13.917 56.3921 13.7998C56.5907 13.6794 56.8185 13.6191 57.0757 13.6191C57.1473 13.6191 57.2238 13.6257 57.3052 13.6387C57.3898 13.6484 57.4565 13.6631 57.5054 13.6826ZM60.4741 16.4121V16.3096C60.4741 15.9222 60.5295 15.5658 60.6401 15.2402C60.7508 14.9115 60.9119 14.6266 61.1235 14.3857C61.3351 14.1449 61.5939 13.9577 61.8999 13.8242C62.2059 13.6875 62.5542 13.6191 62.9448 13.6191C63.342 13.6191 63.6935 13.6875 63.9995 13.8242C64.3088 13.9577 64.5692 14.1449 64.7808 14.3857C64.9924 14.6266 65.1535 14.9115 65.2642 15.2402C65.3748 15.5658 65.4302 15.9222 65.4302 16.3096V16.4121C65.4302 16.7962 65.3748 17.1527 65.2642 17.4814C65.1535 17.807 64.9924 18.0918 64.7808 18.3359C64.5692 18.5768 64.3104 18.764 64.0044 18.8975C63.6984 19.0309 63.3485 19.0977 62.9546 19.0977C62.564 19.0977 62.214 19.0309 61.9048 18.8975C61.5955 18.764 61.3351 18.5768 61.1235 18.3359C60.9119 18.0918 60.7508 17.807 60.6401 17.4814C60.5295 17.1527 60.4741 16.7962 60.4741 16.4121ZM61.7632 16.3096V16.4121C61.7632 16.6432 61.786 16.8597 61.8315 17.0615C61.8771 17.2633 61.9471 17.4408 62.0415 17.5938C62.1359 17.7467 62.258 17.8672 62.4077 17.9551C62.5607 18.0397 62.743 18.082 62.9546 18.082C63.1629 18.082 63.342 18.0397 63.4917 17.9551C63.6414 17.8672 63.7635 17.7467 63.8579 17.5938C63.9556 17.4408 64.0272 17.2633 64.0728 17.0615C64.1183 16.8597 64.1411 16.6432 64.1411 16.4121V16.3096C64.1411 16.0817 64.1183 15.8685 64.0728 15.6699C64.0272 15.4681 63.9556 15.2907 63.8579 15.1377C63.7635 14.9814 63.6398 14.8594 63.4868 14.7715C63.3371 14.6803 63.1564 14.6348 62.9448 14.6348C62.7365 14.6348 62.5575 14.6803 62.4077 14.7715C62.258 14.8594 62.1359 14.9814 62.0415 15.1377C61.9471 15.2907 61.8771 15.4681 61.8315 15.6699C61.786 15.8685 61.7632 16.0817 61.7632 16.3096ZM67.6519 14.8008V19H66.3628V13.7168H67.5786L67.6519 14.8008ZM67.4614 16.168H67.0659C67.0659 15.8001 67.1099 15.4616 67.1978 15.1523C67.2889 14.8431 67.4224 14.5745 67.5981 14.3467C67.7739 14.1156 67.9904 13.9365 68.2476 13.8096C68.508 13.6826 68.8091 13.6191 69.1509 13.6191C69.3885 13.6191 69.6066 13.6549 69.8052 13.7266C70.0037 13.7949 70.1746 13.904 70.3179 14.0537C70.4644 14.2002 70.5767 14.3923 70.6548 14.6299C70.7329 14.8643 70.772 15.1458 70.772 15.4746V19H69.4829V15.6064C69.4829 15.359 69.4471 15.1654 69.3755 15.0254C69.3071 14.8854 69.2078 14.7878 69.0776 14.7324C68.9474 14.6738 68.7912 14.6445 68.6089 14.6445C68.4071 14.6445 68.2329 14.6852 68.0864 14.7666C67.9432 14.8447 67.8244 14.9538 67.73 15.0938C67.6388 15.2337 67.5705 15.3949 67.5249 15.5771C67.4826 15.7594 67.4614 15.9564 67.4614 16.168ZM70.6743 15.9287L70.1421 16.0264C70.1453 15.6943 70.1909 15.3835 70.2788 15.0938C70.3667 14.8008 70.4953 14.5452 70.6646 14.3271C70.8371 14.1058 71.0503 13.9333 71.3042 13.8096C71.5614 13.6826 71.8576 13.6191 72.1929 13.6191C72.4533 13.6191 72.6877 13.6566 72.896 13.7314C73.1076 13.8031 73.2882 13.9186 73.438 14.0781C73.5877 14.2344 73.7017 14.4378 73.7798 14.6885C73.8612 14.9391 73.9019 15.2451 73.9019 15.6064V19H72.603V15.6016C72.603 15.3444 72.5672 15.1475 72.4956 15.0107C72.4272 14.874 72.328 14.7796 72.1978 14.7275C72.0675 14.6722 71.9146 14.6445 71.7388 14.6445C71.5597 14.6445 71.4035 14.6787 71.27 14.7471C71.1398 14.8122 71.0291 14.9033 70.938 15.0205C70.8501 15.1377 70.7834 15.2744 70.7378 15.4307C70.6955 15.5837 70.6743 15.7497 70.6743 15.9287Z" fill="white"/>
<g clip-path="url(#clip0_1147_3)">
<path d="M105.549 15.7582V16C105.549 20.1623 102.162 23.5492 98 23.5492C93.8377 23.5492 90.4508 20.1623 90.4508 16C90.4508 11.8377 93.8377 8.45083 98 8.45083C100.017 8.45083 101.912 9.23589 103.337 10.6625C103.689 11.014 104.005 11.4009 104.284 11.8184H102.046L102.017 13.2499H105.394C106.113 13.2499 106.697 12.6647 106.697 11.9473V8.57496H105.246V10.6658C104.975 10.2966 104.68 9.95325 104.364 9.63568C102.664 7.93659 100.404 7 98 7C93.0365 7 89 11.0365 89 16C89 20.9635 93.0365 25 98 25C102.963 25 107 20.9635 107 16V15.7582H105.549Z" fill="white"/>
</g>
<defs>
<clipPath id="clip0_1147_3">
<rect width="18" height="18" fill="white" transform="translate(89 7)"/>
</clipPath>
</defs>
</svg>
